<svg width="36" height="36" viewBox="0 0 36 36" version="1.1" xmlns="http://www.w3.org/2000/svg" xmlns:xlink="http://www.w3.org/1999/xlink"><g id=" " stroke="none" stroke-width="1" fill="none" fill-rule="evenodd"><g transform="translate(-438.000000, -1996.000000)" fill="none"><g transform="translate(178.000000, 1242.000000)" fill="none"><g id="Group-12" transform="translate(260.000000, 754.000000)" fill="none"><g id=" " fill="none"><circle id="Oval-Copy-3" fill="#2D2A26" cx="17.7428571" cy="17.7428571" r="17.7428571"></circle><path d="M21.2987327,18.1350368 L18.9721198,18.1350368 C18.9721198,21.7629598 18.9721198,26.2285714 18.9721198,26.2285714 L15.5245392,26.2285714 C15.5245392,26.2285714 15.5245392,21.8062497 15.5245392,18.1350368 L13.8857143,18.1350368 L13.8857143,15.2745267 L15.5245392,15.2745267 L15.5245392,13.4243028 C15.5245392,12.0991805 16.1697005,10.0285714 19.0038018,10.0285714 L21.5585253,10.038129 L21.5585253,12.8148702 C21.5585253,12.8148702 20.006106,12.8148702 19.7042627,12.8148702 C19.4024194,12.8148702 18.9732719,12.9621685 18.9732719,13.5940894 L18.9732719,15.2750889 L21.6,15.2750889 L21.2987327,18.1350368 Z" fill="#FFFFFF"></path></g></g></g></g></g></svg>