<svg width="23" height="16" viewBox="0 0 23 16" version="1.1" xmlns="http://www.w3.org/2000/svg" xmlns:xlink="http://www.w3.org/1999/xlink"><defs><polygon id=" " points="0 0.0579574158 22.9867601 0.0579574158 22.9867601 14.7571244 0 14.7571244"></polygon><path d="M17.7176242,0.0816592262 C14.7101047,-0.440910218 12.4509087,1.68148562 11.4173937,2.91176835 C10.3857503,1.68086558 8.12206217,-0.442150298 5.11716309,0.0816592262 C2.15032281,0.592571925 -0.0415527344,3.2594246 0.0179063585,6.28484623 C0.0734971788,9.07632688 1.69374186,12.1056548 4.83384332,15.2886285 C6.69329698,17.172557 8.83675673,18.6476935 11.2058865,19.6735491 C11.2731445,19.7018229 11.3455811,19.7172619 11.4173937,19.7172619 C11.4892063,19.7172619 11.5616428,19.7018229 11.6289008,19.6735491 C13.998093,18.6476935 16.1414903,17.172557 18.000944,15.2886285 C21.1417318,12.1050347 22.7619141,9.07570685 22.8175049,6.28484623 C22.8769016,3.2594246 20.6843397,0.592571925 17.7176242,0.0816592262 Z M17.2440728,14.5507813 C15.5365424,16.281746 13.576888,17.6475694 11.4172065,18.6143353 C9.25758735,17.6476314 7.29787055,16.281746 5.59034017,14.5507812 C2.64552409,11.5664062 1.12691515,8.7781498 1.07712674,6.26432292 C1.02802463,3.75434028 2.84218207,1.54197669 5.29803602,1.11904762 C5.55159505,1.07533482 5.79797906,1.0553081 6.03924696,1.0553081 C8.59205729,1.0553081 10.4450846,3.32558284 10.9864556,4.07632688 C11.0860324,4.21453373 11.2465034,4.29619296 11.4172065,4.29619296 C11.587972,4.29619296 11.7483805,4.21453373 11.8473334,4.07700893 C12.4411133,3.25558036 14.6117133,0.613777282 17.536377,1.11898562 C19.9922309,1.54191468 21.8070747,3.75427827 21.7565999,6.26426091 C21.7074978,8.77752976 20.1895128,11.5657242 17.2440728,14.5507813 Z" id=" " fill="#2D2A26"></path></defs><g id=" " stroke="none" stroke-width="1" fill="none" fill-rule="evenodd"><g id=" " transform="translate(-502.000000, -775.000000)" fill="none"><g transform="translate(0.000000, 764.000000)" fill="none"><g transform="translate(265.000000, 11.000000)" fill="none"><g transform="translate(206.000000, 0.000000)" fill="none"><g transform="translate(31.000000, 0.000000)" fill="none"><g transform="translate(0.000000, -0.000000)" fill="none"><g id=" " transform="translate(0.000000, 0.061052)" fill="none"><mask id=" " fill="#FFFFFF"><use xlink:href="# "></use></mask><g id=" " fill="none"></g><path d="M22.6610658,8.95539662 C22.2958067,8.79532942 21.8787083,8.76510112 21.4819881,8.68191378 C21.1413974,8.68929234 20.8303611,8.62883574 20.4879829,8.62883574 C20.4429363,8.61288852 20.3893093,8.5981314 20.3739363,8.54576741 C20.3133974,8.12804558 20.2900399,7.69544762 20.1986358,7.29367301 C20.0549155,6.51118839 19.7364907,5.81546138 19.2046306,5.19256792 C19.1966461,5.17043224 19.1966461,5.13960889 19.2046306,5.10938059 C19.3564544,4.66952307 19.5766824,4.12350947 19.3182005,3.65913609 C19.2650503,3.56964127 19.1583922,3.50858962 19.1818689,3.37934577 C19.2354959,2.62078198 19.0601953,1.91470118 18.8929984,1.22468661 C18.8172057,0.967031979 18.7406979,0.716874919 18.5974544,0.490162646 C18.4222731,0.207992147 18.0645218,0.390433047 17.8146202,0.398406655 C17.0167705,0.52657942 16.3109207,0.869087516 15.6038793,1.21040552 C15.4904285,1.27086213 15.384128,1.34607586 15.2700813,1.4070085 C15.1559155,1.43783185 15.1331539,1.30156647 15.0800036,1.24063382 C14.7085477,0.610242795 14.0929104,0.102550113 13.3555995,0.0581597312 C12.9526824,0.0501861237 12.5806306,0.260951182 12.3837601,0.617740366 C12.1172938,1.0132075 11.980843,1.46008654 11.7982731,1.88447288 C11.7685995,1.94611958 11.7075839,1.95290309 11.6470451,1.94611958 C11.336128,1.90791767 11.0165114,1.91470118 10.7044026,1.89197045 C9.91572902,1.86971575 9.12538705,1.90791767 8.35852176,1.9831314 C8.33564093,1.97682392 8.31228342,1.97682392 8.29750622,1.96099571 C7.89458912,1.49816945 7.4009829,1.05831193 6.87710725,0.755671875 C6.51184819,0.542526635 6.14730415,0.322002834 5.75356321,0.171575372 C5.59256321,0.132778416 5.38031969,0.0945765058 5.22110725,0.171575372 C4.72011244,0.482070029 4.38571865,1.02011002 4.14999845,1.52899279 C3.88460466,2.06013026 3.77794663,2.67445507 3.78485855,3.31151061 C3.80714352,3.60605805 3.83848549,3.89453603 3.87721606,4.17599247 C3.86815907,4.21478943 3.86815907,4.2512062 3.84646995,4.28191054 C3.26157876,4.89635436 2.82052694,5.58006145 2.49399845,6.30839694 C2.36505544,6.70957651 2.20584301,7.09707003 2.14375492,7.52109934 C1.9627342,8.24931582 1.97024197,9.03858395 2.00039223,9.81987848 C1.99193109,9.85808039 1.97024197,9.90306582 1.93258394,9.91103943 C1.82580674,9.9396016 1.71116425,9.93329412 1.60557876,9.95614386 C1.38415907,10.062657 1.08909171,10.0085079 0.860879275,10.1076424 C0.823221244,10.1304921 0.755293782,10.1384658 0.732532124,10.1828561 C0.723951813,10.1908297 0.723951813,10.168575 0.708578756,10.1766677 C0.480366321,10.3265001 0.177791192,10.3350687 0.00260984456,10.5703497 C-0.00477875648,10.6148591 0.00260984456,10.6775768 0.0334751295,10.7145886 C0.0711331606,10.7362483 0.124164249,10.7225623 0.155029534,10.70602 C0.527081347,10.5619 0.860879275,10.3265001 1.26320052,10.2660435 C1.51488964,10.2439078 1.74989482,10.1989224 2.00039223,10.1766677 C2.03066166,10.1828561 2.06093109,10.2216531 2.0695114,10.2518814 C2.18248549,10.7892073 2.35766684,11.3066588 2.54035596,11.8138754 C2.55513316,11.874808 2.49399845,11.8987289 2.45586373,11.927291 C2.16711244,12.0492753 1.87883782,12.1791142 1.61356321,12.3448939 C1.56851658,12.3836908 1.51488964,12.4282002 1.50690518,12.4891329 C1.51488964,12.5279298 1.52966684,12.5580391 1.56851658,12.5723202 C1.78016425,12.5580391 1.9627342,12.4361738 2.16020052,12.3677436 C2.32680155,12.3005035 2.5019829,12.2537329 2.66119534,12.1705456 C2.7217342,12.162572 2.75307617,12.2093425 2.78274974,12.2457593 C3.04135078,12.6412264 3.35226788,13.0127727 3.72431969,13.3233864 C3.73981192,13.3388576 3.73230415,13.3695619 3.71752694,13.383843 C3.4441487,13.6949327 3.07841295,13.9315227 2.85127306,14.2562985 C2.82898808,14.3321073 2.76737668,14.4163657 2.84388446,14.4837248 C2.86664611,14.5076456 2.90370829,14.4916984 2.92658912,14.4837248 C3.24668238,14.1508565 3.6187342,13.8704711 3.98280155,13.581041 C4.0125943,13.5661649 4.05990518,13.5742575 4.08957876,13.5890147 C4.57520052,13.9456848 5.13041813,14.1200331 5.69183264,14.2722457 C6.41317461,14.4244583 7.13499326,14.5748858 7.90257358,14.5976165 C7.96537668,14.6232034 8.04402953,14.6129687 8.10862021,14.6278448 C8.26664093,14.6403408 8.63416425,14.6710451 8.86750104,14.6836601 C8.8692886,14.6836601 8.87155285,14.6819939 8.8738171,14.6819939 C9.22358394,14.6967511 9.54260466,14.7269794 9.89177565,14.7429266 C9.90154767,14.7447117 9.91179637,14.7457828 9.92264093,14.7474489 C9.94885855,14.7492341 9.97281192,14.7509002 9.99283264,14.7509002 C10.0047497,14.7509002 10.016786,14.7525663 10.0282264,14.7525663 C10.039071,14.7525663 10.0475321,14.7543514 10.0538482,14.7543514 C10.0538482,14.7543514 10.7249,14.7606589 10.9600244,14.7543514 C10.9600244,14.7543514 11.2442472,14.7543514 11.5575477,14.7525663 C11.7931487,14.7457828 12.0294648,14.7412604 12.2599415,14.7447117 C12.3057031,14.7429266 12.3403819,14.7412604 12.3587342,14.7394753 C12.3587342,14.7394753 12.992128,14.7509002 13.2112834,14.7429266 C14.0094907,14.6597392 14.8215218,14.6209423 15.5809984,14.4244583 C16.1283508,14.2943814 16.6903611,14.2033395 17.1914751,13.9537774 C17.3734492,13.8624975 17.5709155,13.7934722 17.7460969,13.6949327 C18.1711798,13.4528683 18.6037705,13.2174683 18.9535373,12.8304509 C19.0904648,12.6634811 19.2427653,12.4971065 19.3707549,12.3313268 C19.4020969,12.2919348 19.4631124,12.3147846 19.5002938,12.3226392 C19.7512679,12.3899983 19.9937808,12.4748518 20.229501,12.5950509 C20.5039518,12.701683 20.7452731,12.8988811 21.0499933,12.9598137 C21.202413,13.0652557 21.3536409,13.2174683 21.5521798,13.1643903 C21.5967497,13.1421356 21.5893611,13.0959601 21.5967497,13.0572821 C21.6127187,12.9740948 21.5357342,12.9358929 21.4819881,12.8909075 C21.2783249,12.7547611 21.0648896,12.6475339 20.8446617,12.5501845 C20.6095373,12.4748518 20.3971746,12.3535815 20.1683663,12.2537329 C20.0097497,12.1870878 19.8494648,12.1096129 19.6834596,12.0492753 C19.6450865,12.018452 19.6069518,11.9739426 19.6297135,11.927291 C19.8197912,11.5641944 19.971615,11.1932431 20.1011539,10.8057496 C20.1234389,10.7755213 20.154185,10.758979 20.1924389,10.7755213 C20.4206513,10.8137232 20.6169259,10.9413009 20.853242,10.9579622 C20.9519155,10.9800979 21.042128,11.0246073 21.1413974,11.0410305 C21.240071,11.0935135 21.337672,11.1323105 21.4449259,11.1545652 C21.4905684,11.1545652 21.5521798,11.1545652 21.5818534,11.1157682 C21.6127187,11.0793514 21.6282109,11.0325809 21.6201073,10.9880715 C21.6047342,10.9191652 21.5357342,10.8889369 21.4819881,10.8582326 C21.1938326,10.7755213 20.9279622,10.6314013 20.6169259,10.5862969 C20.4953715,10.5253642 20.3510554,10.4951359 20.229501,10.4342033 C20.1769466,10.3737467 20.2072161,10.2746121 20.2152005,10.206896 C20.305413,9.81190487 20.3596358,9.41013026 20.3819207,8.99252744 C20.434356,8.88649037 20.5792679,8.92469228 20.6860451,8.92469228 C21.0347394,8.99252744 21.4152523,8.9092211 21.7484544,9.00787961 C22.0749829,9.091662 22.4093767,9.1519996 22.7129052,9.27398389 C22.7826202,9.27398389 22.8572212,9.28814597 22.9109674,9.25006307 C22.9645943,9.21126611 22.9787756,9.1599732 22.9867601,9.10582408 C22.9491021,8.9617041 22.7665321,9.00787961 22.6610658,8.95539662" id=" " fill="#231F20" mask="url(# )"></path></g><path d="M2.50203057,9.82789969 C2.55518083,9.88097774 2.64586995,9.85015439 2.70748135,9.85015439 C3.14746062,9.81195248 3.62569378,9.81195248 4.0125228,9.94762281 C4.04338808,9.97213868 4.08211865,9.98641977 4.08211865,10.0171241 C4.09701503,10.0632996 4.05983368,10.0998354 4.02908756,10.1162587 C3.70208238,10.1237562 3.37519637,10.055326 3.04127927,10.1082851 C2.8900513,10.1237562 2.73715492,10.1237562 2.59343472,10.1607681 C2.54028446,10.1915914 2.57055389,10.2678762 2.57055389,10.3128616 C2.69210829,10.78985 2.79817047,11.2680284 2.98765233,11.708481 C3.00314456,11.7307357 3.01839845,11.7529904 3.04127927,11.7694136 C3.42131554,11.7005074 3.81565233,11.511878 4.21904611,11.6475483 C4.24883886,11.6555219 4.27160052,11.6777766 4.27160052,11.7005074 C4.23394249,11.8366537 4.07365751,11.8076155 3.96795285,11.8298702 C3.69409793,11.8366537 3.44419637,11.905084 3.22277668,12.0413493 C3.20049171,12.0738388 3.20847617,12.1102556 3.22277668,12.1484575 C3.43561606,12.5120302 3.7632171,12.8465647 4.09701503,13.1041003 C4.1266886,13.1120739 4.18031554,13.1182624 4.20367306,13.0898192 C4.4228285,12.9376066 4.64424819,12.785513 4.87937254,12.6716214 C4.93240363,12.6642428 4.99973523,12.6561502 5.03858497,12.6943521 C5.06933109,12.7164878 5.06075078,12.7552847 5.05336218,12.7934866 C4.97804611,12.8915501 4.86328446,12.929752 4.77259534,13.0129394 C4.68190622,13.1182624 4.54497876,13.165152 4.48384404,13.2853511 C4.49242435,13.3765121 4.59002539,13.3765121 4.64424819,13.4306612 C5.10758497,13.6272642 5.5555487,13.8471929 6.06345544,13.9235967 C6.68660052,14.0517695 7.33989585,14.1206758 7.99390622,14.1811324 C8.69975596,14.2722933 9.40667824,14.2722933 10.1195591,14.3253714 C11.3202067,14.3783304 12.5276472,14.3481021 13.7122067,14.2643197 C14.6384036,14.1429305 15.5588803,14.0227313 16.4090461,13.7411558 C17.2832845,13.4527969 18.1557352,13.0898192 18.7863881,12.3005511 C18.8017611,12.2703228 18.8251187,12.2402135 18.8091497,12.2014165 C18.7937767,12.1786858 18.7720876,12.1707122 18.7565953,12.1627386 C18.5203984,12.1182292 18.254528,12.1484575 18.0490772,12.0350419 C18.012015,11.9962449 17.9971187,11.9598281 17.9817456,11.9216262 C17.9817456,11.866882 18.0040306,11.8298702 18.0341808,11.7996419 C18.1712275,11.7387093 18.2784813,11.8441513 18.4074244,11.8521249 C18.619787,11.8606936 18.8320306,11.8366537 19.0294969,11.8913979 C19.1052896,11.8828293 19.1510513,11.8076155 19.1897819,11.7529904 C19.3792637,11.458919 19.5002223,11.1323581 19.5766109,10.78985 C19.5841187,10.7608118 19.5612378,10.7227289 19.5225073,10.7140412 C19.2280358,10.6171678 18.8930461,10.6622723 18.5740254,10.6394225 C18.5203984,10.6314489 18.4679632,10.592771 18.4370979,10.5482616 C18.4222016,10.4953025 18.4450824,10.448532 18.4753518,10.4183037 C18.6419528,10.3209543 18.8474036,10.3818869 19.0294969,10.3357114 C19.2355435,10.3357114 19.4396834,10.3659397 19.6377456,10.3875993 C19.668015,10.3875993 19.6754036,10.3510636 19.6976886,10.3357114 C19.7895694,9.93334173 19.8728699,9.50943143 19.8654813,9.08373599 C19.8123311,8.98567252 19.6907767,9.02280335 19.5915073,9.01649587 C19.1441394,9.03065795 18.7258492,9.1219379 18.3241238,9.2517768 C18.2471394,9.25808428 18.1798078,9.22785597 18.140958,9.16692333 C18.1260617,9.11384529 18.140958,9.07683347 18.1798078,9.03875057 C18.5050254,8.82620037 18.9159269,8.81929785 19.2959632,8.73492042 C19.4779373,8.72694681 19.6297611,8.66601417 19.8049425,8.65911164 C19.8493933,8.63697596 19.8493933,8.59068143 19.8493933,8.54581501 C19.8728699,7.93089516 19.7439269,7.36155578 19.539072,6.8316084 C19.409414,6.47434318 19.2120668,6.1477823 18.953585,5.83716864 C18.9307041,5.815628 18.8850617,5.80694033 18.8628959,5.82919503 C18.7407456,5.95796284 18.6728181,6.11136553 18.5586523,6.23156469 C18.1180772,6.80078506 17.5029166,7.43784059 16.7211549,7.2174358 C16.0524865,6.97525235 15.7864969,6.2475119 15.5662689,5.65484675 C15.5513725,5.6331871 15.5286109,5.62461844 15.5052534,5.61045636 C14.9357352,5.61045636 14.4346212,5.31471883 14.1225124,4.83535031 C14.054585,4.79726741 13.9787922,4.84391896 13.9182534,4.85986618 C13.3863933,5.0098176 12.7860098,5.12370928 12.2017145,5.0098176 C11.8439632,4.92651125 11.5785694,4.56365261 11.5181497,4.21471802 C11.3959995,3.6671573 11.5785694,3.12971235 11.6157508,2.59191038 C11.5323311,2.46992608 11.3583415,2.51491151 11.2288026,2.4767096 C10.7500927,2.40958849 10.242186,2.43969778 9.74738808,2.43969778 C9.25378187,2.45445491 8.79056425,2.53883233 8.32031554,2.59809885 C8.19077668,2.59809885 8.04753316,2.61404607 7.94826373,2.53883233 C7.84208238,2.43969778 7.81133627,2.31830853 7.74281295,2.20429785 C7.33989585,1.71136229 6.83890104,1.32386877 6.3071601,1.00528149 C6.07203575,0.875918637 5.82892694,0.756314524 5.57044508,0.678839621 C5.35069378,0.610409407 5.22806684,0.830933209 5.06933109,0.930067762 C4.43140881,1.63448243 4.26421192,2.58381776 4.30186995,3.55374166 C4.32522746,3.65287621 4.32522746,3.78057294 4.4228285,3.84329072 C4.56714456,3.82734351 4.69727927,3.68369956 4.84159534,3.7891416 C4.90225337,3.82734351 4.9095228,3.88827615 4.9095228,3.95551627 C4.88676114,4.13153068 4.68869896,4.2210255 4.56714456,4.3430098 C4.15004611,4.66100202 3.80707202,5.0570642 3.48245026,5.45027016 C2.85870933,6.39960549 2.5249114,7.47497142 2.47128446,8.65173308 C2.4797456,9.02280335 2.40276114,9.38006857 2.46437254,9.74304623 C2.4797456,9.76696705 2.4797456,9.80350283 2.50203057,9.82789969" id=" " fill="#FEFEFE"></path><path d="M5.95781036,10.6012206 C6.1022456,10.6838129 6.32986218,10.6925006 6.46678964,10.5864635 C6.77842176,10.357371 6.73218342,9.90323243 6.67962902,9.55441686 C6.6414943,9.35721883 6.45880518,9.16061585 6.25395026,9.1219379 C6.08687254,9.09968321 5.95042176,9.17489694 5.83577927,9.3042598 C5.66917824,9.53156711 5.66167047,9.85015439 5.6845513,10.1544606 C5.74437513,10.3128616 5.77524041,10.501491 5.95781036,10.6012206" id=" " fill="#231F20"></path><path d="M10.408799,11.9296117 C10.7346124,12.0874177 11.2059337,12.1325222 11.563685,12.0127991 C11.7377938,11.9518664 11.8748404,11.7837066 11.9278715,11.6173319 C11.9962756,11.420729 11.9352601,11.2235309 11.8057212,11.0633447 C11.4872964,10.7447574 10.903001,10.8137827 10.5069959,10.9500481 C10.3254984,11.0326404 10.1736746,11.2069887 10.1434052,11.4121603 C10.134944,11.6173319 10.203944,11.8366656 10.408799,11.9296117" id=" " fill="#231F20"></path><path d="M10.5754,11.7917159 C10.8425813,11.9131052 11.2441876,11.9131052 11.5101772,11.7774348 C11.624343,11.6942475 11.7075244,11.5784517 11.7075244,11.4423053 C11.7075244,11.3375773 11.6544933,11.2599834 11.5785813,11.1933383 C11.3360684,11.01899 10.9554363,11.0490993 10.6821772,11.1244321 C10.5383378,11.1704886 10.408799,11.2987804 10.3848456,11.4423053 C10.3791254,11.5865443 10.4624259,11.7165022 10.5754,11.7917159" id=" 0" fill="#FFDD00"></path><path d="M12.1703606,4.51113391 C12.7335627,4.78295062 13.3943658,4.57789799 13.9262259,4.381176 C14.0009461,4.33452445 13.9873606,4.2512181 13.9873606,4.16862581 C13.9632881,4.04664152 14.0467078,3.91109019 13.9331378,3.8273078 C13.7048062,3.78053724 13.4776663,3.61475761 13.4240394,3.37935767 C13.3487233,3.09159375 13.4469202,2.80323478 13.6745368,2.62091289 C13.9558995,2.46989038 14.3433244,2.55307772 14.5859565,2.74230214 C14.7227648,2.75027574 14.8135731,2.62091289 14.9357233,2.57592746 C14.9893503,2.55986124 15.0652622,2.53879663 15.0800394,2.46989038 C15.0115161,1.98385735 14.7993917,1.559233 14.5031326,1.18030813 C14.2526352,0.847439767 13.910257,0.66452283 13.5541741,0.565388277 C13.233485,0.498743199 12.9304332,0.587642973 12.7404746,0.861720855 C12.5509927,1.12723008 12.4362311,1.42308663 12.3078839,1.71822911 C12.1327026,2.35647474 11.9204591,2.97079955 11.867428,3.66093313 C11.8594435,3.98749401 11.8748166,4.32821697 12.1703606,4.51113391" id=" 2" fill="#EE3D42"></path><path d="M13.8566181,3.46202137 C13.926214,3.49284472 13.9873487,3.53949628 14.0626648,3.52354906 C14.1761155,3.41013342 14.2149653,3.26708452 14.3056544,3.14402915 C14.3279394,3.09166516 14.3815663,3.05393928 14.3661933,2.99181655 C14.2526233,2.87161739 14.0700534,2.83341548 13.9028565,2.87161739 C13.8486337,2.89434812 13.7892865,2.92469543 13.7590171,2.97765447 C13.6826285,3.13772166 13.6900171,3.35717438 13.8566181,3.46202137" id=" 4" fill="#EE3D42"></path><path d="M15.5285632,2.42376247 C15.6272368,2.4767215 15.756299,2.46184537 15.8698689,2.49266872 C16.2795788,2.54562775 16.6681953,2.78840625 16.8724544,3.16792617 C16.9340658,3.22719268 17.008786,3.19815447 17.0852938,3.19815447 C17.5868845,3.12186966 18.1409104,3.13781687 18.6351124,3.22100421 C18.6727705,3.22100421 18.6956513,3.19018086 18.6956513,3.16007157 C18.7185321,2.64428627 18.627128,2.17408144 18.5050969,1.71137419 C18.4222731,1.44586496 18.3760347,1.1654796 18.2317187,0.914132448 C18.0958637,0.786554728 17.9138896,0.906158841 17.7608741,0.914132448 C16.9563508,1.1352513 16.1967549,1.46811966 15.4904285,1.91595078 C15.4292938,1.94558403 15.4213093,2.04424255 15.4458585,2.1131488 C15.4829207,2.21228335 15.4681435,2.33248251 15.5285632,2.42376247" id=" 6" fill="#FEFEFE"></path><path d="M15.8316031,10.6838605 C15.9302767,10.7670478 16.0747119,10.7898976 16.2047275,10.7533618 C16.5157637,10.6229279 16.6070487,10.2906545 16.6070487,9.98004088 C16.6070487,9.72083914 16.5763026,9.45473486 16.3491627,9.31109092 C16.2196238,9.22790358 16.0227534,9.19089176 15.8852301,9.26610549 C15.5205668,9.4631845 15.5662093,9.92541572 15.5884943,10.2906545 C15.6118518,10.4422721 15.6951523,10.5926996 15.8316031,10.6838605" id=" 8" fill="#231F20"></path><path d="M15.9685187,5.67762508 C16.1054461,6.00418596 16.241301,6.33872045 16.4848865,6.61839176 C16.7281145,6.80083266 17.0247311,6.92103182 17.3363632,6.83165601 C17.9138658,6.61053716 18.2544565,5.98823875 18.6037466,5.51065536 C18.8251663,5.04045053 19.1966223,4.5635812 19.0071404,3.98745831 C18.8930938,3.69112573 18.5666845,3.65292382 18.3086793,3.58401757 C17.8989694,3.53950818 17.4425446,3.47845653 17.0619124,3.6369766 C16.993985,3.71385646 17.0550005,3.81989354 17.0470161,3.91105449 C17.0470161,3.99424182 17.0167466,4.10706242 17.0852699,4.16859011 C17.3203943,4.26772466 17.564099,4.44219195 17.6251145,4.70770118 C17.6701611,4.94310112 17.5937725,5.17850105 17.4110834,5.32833347 C17.2981093,5.43603667 17.1388969,5.49696932 16.9786119,5.45019875 C16.8267881,5.41211585 16.7126223,5.29179768 16.591187,5.20063674 C16.5609176,5.19266313 16.5454254,5.20063674 16.5157518,5.20861035 C16.3411663,5.3510642 16.1506119,5.45876741 15.9685187,5.58027566 C15.9525497,5.60241135 15.9525497,5.64692074 15.9685187,5.67762508" fill="#EE3D42"></path><path d="M15.0543819,5.16364872 C15.5091383,5.32252583 16.0489829,5.23148389 16.3600192,4.85184496 C16.5352005,4.61763512 16.6487705,4.36688301 16.6641435,4.07055044 C16.6716513,3.6540187 16.5579622,3.24438949 16.1779259,3.02386569 C15.8811902,2.80441297 15.3875839,2.79632035 15.0680865,2.97876125 C14.7044959,3.13775737 14.5219259,3.51834836 14.4158637,3.85919033 C14.3245788,4.23085565 14.4078793,4.60978052 14.6508689,4.88219228 C14.7725425,4.99727404 14.9014855,5.1174732 15.0543819,5.16364872" fill="#EE3D42"></path><path d="M16.9523228,5.03423826 C17.0350275,5.0793427 17.1651622,5.09528991 17.2484627,5.02626465 C17.3248513,4.96711715 17.3317632,4.86786358 17.3174627,4.78467625 C17.2719394,4.65471835 17.1422813,4.5413027 17.0053539,4.52654558 C16.9221725,4.61770653 16.8764109,4.73850073 16.8238565,4.84513285 C16.8010948,4.93617479 16.8911881,4.98925283 16.9523228,5.03423826" fill="#EE3D42"></path></g></g></g></g></g></g></g></svg>