<?xml version="1.0" encoding="UTF-8"?>
<svg width="440px" height="34px" viewBox="0 0 440 34" version="1.1" xmlns="http://www.w3.org/2000/svg" xmlns:xlink="http://www.w3.org/1999/xlink">
    <title>8F3A4404-640D-4789-8789-9208B21DABB4</title>
    <g id="hk.cafe.v1" stroke="none" stroke-width="1" fill="none" fill-rule="evenodd">
        <g id="d.srio.hk-cafe.landing.v1" transform="translate(-180.000000, -927.000000)">
            <g id="HK-vegas" transform="translate(180.000000, 927.000000)">
                <path d="M359.720007,17.33625 C359.725815,23.6226454 355.943457,29.2932757 350.137254,31.7030056 C344.33105,34.1127356 337.644931,32.7868032 333.19772,28.3437059 C328.750509,23.9006087 327.418389,17.2157201 329.822744,11.4072886 C332.2271,5.59885712 337.894227,1.81124334 344.180625,1.81124334 C348.300601,1.80743521 352.25314,3.44141591 355.167752,6.35333176 C358.082364,9.26524761 359.720007,13.2162722 359.720007,17.33625 Z" id="Path" stroke="#FFFFFF" fill="#231F20" fill-rule="nonzero"></path>
                <path d="M344.583125,27.355625 C342.834766,27.3230486 341.106399,26.9773751 339.48,26.335 C337.335714,25.7803014 335.549658,24.2998239 334.606875,22.295625 C334.21875,21.36125 333.96,20.743125 334.405625,20.311875 C334.482289,20.2367378 334.585791,20.1953371 334.693125,20.196875 C334.836875,20.196875 334.85125,20.196875 335.756875,20.95875 C336.08478,20.879594 336.396196,20.7433495 336.676875,20.55625 C336.986415,20.3444335 337.340558,20.2067112 337.711875,20.15375 C337.825544,20.1670576 337.936815,20.1960848 338.0425,20.24 C338.352454,20.4939127 338.602745,20.8129119 338.775625,21.174375 C339.232149,22.2489689 340.189663,23.0289665 341.334375,23.25875 C341.468132,23.2735852 341.603118,23.2735852 341.736875,23.25875 C342.896083,23.1509385 343.996978,22.700572 344.899375,21.965 C345.190234,21.7117326 345.52693,21.5165465 345.89125,21.39 L346.035,21.39 C346.382907,21.4349742 346.722098,21.531886 347.04125,21.6775 C347.445808,21.8763616 347.876572,22.0167231 348.320625,22.094375 L348.550625,22.094375 C348.830956,22.0964415 349.105773,22.0164946 349.34125,21.864375 C349.989567,21.3550215 350.51521,20.7065644 350.879375,19.966875 C351.145195,19.462761 351.452946,18.9818993 351.799375,18.529375 C352.026936,18.2195998 352.392716,18.0420892 352.776875,18.055 C353.047281,18.0594983 353.314393,17.9951935 353.553125,17.868125 L354.300625,17.7387086 L354.300625,17.7387086 C354.407959,17.7372121 354.511461,17.7786128 354.588125,17.85375 C354.686567,17.9396457 354.735189,18.069305 354.7175,18.19875 L354.7175,19.104375 C354.339702,20.4949016 353.789164,21.8326123 353.07875,23.08625 C352.118569,24.5632052 350.721612,25.7038858 349.0825,26.349375 C347.66755,26.9896952 346.13604,27.3322054 344.583125,27.355625 L344.583125,27.355625 Z" id="Path" fill="#231F20" fill-rule="nonzero"></path>
                <path d="M354.358125,18.213125 L354.358125,19.11875 C353.996263,20.4578011 353.459784,21.7434183 352.7625,22.9425 C351.855451,24.3441623 350.526527,25.4213962 348.9675,26.01875 C347.609495,26.6199561 346.140129,26.9285229 344.655,26.9244163 C342.956888,26.8961662 341.277436,26.5651438 339.695625,25.946875 C337.666147,25.4155476 335.970103,24.0240562 335.0525,22.1375 C334.73625,21.346875 334.535,20.84375 334.765,20.61375 L335.699375,21.39 C336.152543,21.3434147 336.587133,21.1853818 336.964375,20.93 C337.209369,20.754237 337.488502,20.6318101 337.78375,20.570625 L337.78375,20.570625 L337.78375,20.570625 C338.029076,20.7939473 338.229167,21.0623626 338.373125,21.36125 C338.897877,22.5490944 339.972551,23.4034605 341.248125,23.646875 C341.396298,23.6616706 341.545577,23.6616706 341.69375,23.646875 C342.936231,23.5433826 344.118582,23.0674359 345.08625,22.28125 C345.345154,22.0724644 345.630287,21.898485 345.934375,21.76375 L346.049375,21.76375 C346.330579,21.8284762 346.604951,21.9199338 346.86875,22.036875 C347.297034,22.2424774 347.751793,22.3876133 348.22,22.468125 L348.5075,22.468125 C348.874783,22.4722247 349.235011,22.3671583 349.5425,22.16625 C350.243655,21.6224953 350.809459,20.9238512 351.195625,20.125 C351.457693,19.6648562 351.750656,19.2230096 352.0725,18.8025 C352.221092,18.5793169 352.481558,18.4573967 352.748125,18.48625 C353.083268,18.4768768 353.41218,18.3934216 353.71125,18.241875 L354.315,18.14125 M354.315,17.3075 L354.17125,17.3075 L353.581875,17.39375 C353.486601,17.4144411 353.394675,17.4483085 353.30875,17.494375 C353.120891,17.5855962 352.913742,17.6299853 352.705,17.62375 C352.2051,17.6142713 351.732357,17.8506426 351.44,18.25625 C351.080963,18.7088386 350.758884,19.189553 350.476875,19.69375 C350.14153,20.3907899 349.649549,21.0008467 349.039375,21.47625 C348.871828,21.5822988 348.677018,21.6372453 348.47875,21.634375 L348.291875,21.634375 C347.900763,21.5586924 347.519698,21.4381021 347.15625,21.275 C346.827853,21.1151574 346.479873,20.9991643 346.12125,20.93 L345.71875,20.93 C345.306481,21.0801351 344.922538,21.2988372 344.583125,21.576875 C343.765051,22.2567991 342.7654,22.681651 341.708125,22.79875 L341.3775,22.79875 C340.361699,22.5702944 339.520126,21.8627298 339.120625,20.90125 C338.916831,20.4739813 338.610687,20.1036453 338.229375,19.823125 C338.106855,19.7498142 337.969164,19.7055564 337.826875,19.69375 L337.740625,19.69375 C337.280184,19.727481 336.83775,19.8865584 336.46125,20.15375 C336.267447,20.2686269 336.065683,20.3695088 335.8575,20.455625 C334.995,19.736875 334.96625,19.736875 334.7075,19.736875 L334.7075,19.736875 C334.486411,19.736968 334.274412,19.8248702 334.118125,19.98125 C333.485625,20.599375 333.830625,21.41875 334.233125,22.410625 C335.20495,24.5435648 337.083826,26.1268871 339.350625,26.723125 C341.02134,27.3886617 342.799326,27.7442589 344.5975,27.7725159 C346.202697,27.7751849 347.790181,27.4371095 349.255,26.780625 C350.979078,26.1099016 352.447847,24.9127543 353.4525,23.359375 C354.185348,22.0879068 354.746084,20.724739 355.12,19.305625 C355.126173,19.2675402 355.126173,19.2287098 355.12,19.190625 L355.191875,18.356875 C355.191875,18.356875 355.191875,18.270625 355.191875,18.213125 C355.191875,17.7526576 354.818592,17.379375 354.358125,17.379375 L354.358125,17.379375 L354.315,17.3075 Z" id="Shape" fill="#FFFFFF" fill-rule="nonzero"></path>
                <path d="M342.09625,24.423125 L341.7225,24.423125 C340.589393,24.1949218 339.639331,23.427357 339.178125,22.3675 C339.005571,21.9937128 338.749899,21.6642895 338.430625,21.404375 C338.349139,21.3629287 338.261931,21.3338593 338.171875,21.318125 L338.171875,21.318125 C337.773795,21.3519564 337.391829,21.4908529 337.065,21.720625 C336.754991,21.9440897 336.39447,22.0873104 336.015625,22.1375 L335.82875,22.1375 C334.130437,21.4590857 333.019024,19.8119141 333.025625,17.983125 C332.868524,14.5780407 334.504426,11.3389542 337.338125,9.444375 C339.261433,8.11584314 341.54123,7.39933569 343.87875,7.38873937 C344.359229,7.38810385 344.839296,7.41690786 345.31625,7.475 C346.943296,7.68804624 348.522747,8.17403118 349.988125,8.9125 C352.530596,10.0453533 354.473796,12.2027234 355.335625,14.849375 C355.684559,15.9069137 355.564219,17.0632249 355.005,18.02625 C354.300625,19.06125 353.840625,19.276875 353.179375,19.305625 C352.783634,19.2914615 352.406651,19.4745676 352.173125,19.794375 C351.826303,20.2466233 351.518529,20.7275193 351.253125,21.231875 C350.900936,21.9750518 350.378981,22.6250334 349.729375,23.129375 C349.502123,23.2762135 349.238043,23.3559357 348.9675,23.359375 L348.7375,23.359375 C348.318875,23.2869217 347.912439,23.1562815 347.53,22.97125 L347.38625,22.97125 C347.098071,22.8292451 346.786202,22.741532 346.46625,22.7125 L346.3225,22.7125 C345.994137,22.7956297 345.689229,22.9530016 345.43125,23.1725 L345.2875,23.273125 C344.368944,23.9784834 343.253596,24.3804105 342.09625,24.423125 L342.09625,24.423125 Z M344.74125,15.065 C343.904557,15.0399935 343.082341,15.2871627 342.398125,15.769375 C341.858611,16.3189241 341.680018,17.1281743 341.938125,17.85375 C342.118238,18.3006086 342.441902,18.6748446 342.858125,18.9175 C343.218789,19.1321505 343.62025,19.2692348 344.036875,19.32 L344.45375,19.32 C344.913812,19.3259535 345.369765,19.2328019 345.790625,19.046875 C346.691827,18.7059691 347.2718,17.8244105 347.228125,16.861875 C347.205651,16.4424106 347.000823,16.0537637 346.6675,15.798125 C346.126443,15.3435535 345.447628,15.0851984 344.74125,15.065 Z" id="Shape" fill="#A7A9AC" fill-rule="nonzero"></path>
                <path d="M343.9075,7.7625 C344.363758,7.75814115 344.819845,7.78214577 345.273125,7.834375 C346.851781,8.05908062 348.38205,8.54488029 349.80125,9.271875 C352.229221,10.3582662 354.090656,12.4126241 354.933125,14.935625 C355.255385,15.8891567 355.156046,16.9348323 354.66,17.810625 C353.99875,18.788125 353.639375,18.874375 353.2225,18.903125 C352.706531,18.8901396 352.217262,19.1320858 351.914375,19.55 C351.552654,20.0006239 351.230422,20.4815682 350.95125,20.9875 C350.610089,21.6727625 350.118724,22.2722277 349.51375,22.74125 C349.353909,22.8391734 349.169282,22.8890724 348.981875,22.885 L348.795,22.885 C348.41204,22.8136298 348.03997,22.6928279 347.688125,22.525625 C347.312031,22.3328392 346.901799,22.2156302 346.480625,22.180625 L346.265,22.180625 C345.827856,22.3067415 345.421601,22.5221056 345.071875,22.813125 C344.259679,23.5049675 343.257728,23.9358063 342.196875,24.049375 L341.86625,24.049375 C340.862871,23.8371554 340.029007,23.1431654 339.638125,22.195 C339.434302,21.75565 339.122789,21.3749121 338.7325,21.088125 C338.602677,21.0169637 338.461717,20.9683566 338.315625,20.944375 L338.171875,20.944375 C337.722717,20.9890888 337.292332,21.1473916 336.92125,21.404375 C336.6793,21.5826394 336.398467,21.7008848 336.101875,21.749375 L336.015625,21.749375 C334.497404,21.0990829 333.513328,19.6060025 333.514375,17.954375 C333.388795,14.7036666 334.955259,11.6196921 337.654375,9.80375 C339.513761,8.53122991 341.71189,7.84525358 343.965,7.834375 M344.56875,19.8231255 C345.063676,19.8233745 345.553233,19.7205676 346.00625,19.52125 C347.074971,19.1122029 347.759448,18.0622837 347.7025,16.919375 C347.676548,16.3803048 347.41341,15.8803421 346.98375,15.55375 C346.367236,15.0330167 345.591158,14.7388172 344.784375,14.72 C343.848012,14.6970982 342.929648,14.9796717 342.168125,15.525 C341.495503,16.1877704 341.270869,17.1817734 341.593125,18.069375 C341.798645,18.6091857 342.18466,19.0612291 342.685625,19.34875 C343.098742,19.5927631 343.559647,19.7447636 344.036875,19.794375 C344.194655,19.8091476 344.35347,19.8091476 344.51125,19.794375 M343.9075,6.9575 C341.488051,6.96978623 339.128507,7.71121395 337.136875,9.085 C334.188257,11.0718175 332.479978,14.4448532 332.623125,17.9975 C332.64109,20.0064399 333.88307,21.8010441 335.756875,22.525625 L335.871875,22.525625 L336.044375,22.525625 C336.488837,22.4797708 336.914295,22.3214608 337.280625,22.065625 C337.528523,21.8856111 337.813289,21.7628675 338.114375,21.70625 C338.165427,21.6875621 338.221448,21.6875621 338.2725,21.70625 C338.517469,21.9354556 338.71737,22.2084906 338.861875,22.51125 C339.385921,23.6943262 340.4632,24.5399898 341.736875,24.768125 L342.168125,24.768125 C343.420645,24.6522728 344.606178,24.1499286 345.560625,23.330625 L345.704375,23.23 C345.917961,23.0539313 346.1614,22.9176055 346.423125,22.8275 L346.423125,22.8275 C346.69941,22.8504487 346.968269,22.9286625 347.21375,23.0575 L347.343125,23.0575 C347.771551,23.2432812 348.220218,23.3783638 348.68,23.46 L348.9675,23.46 C349.321665,23.4663356 349.668788,23.3606892 349.959375,23.158125 C350.658803,22.6184627 351.224478,21.9248962 351.6125,21.13125 C351.872818,20.670032 352.165861,20.2280662 352.489375,19.80875 C352.649194,19.5725284 352.923852,19.4406928 353.208125,19.46375 C353.97,19.46375 354.559375,19.17625 355.35,18.02625 C355.982187,16.9582618 356.123617,15.6696846 355.738125,14.49 C354.837529,11.7296914 352.811449,9.479072 350.160625,8.294375 C348.657171,7.54947853 347.038848,7.06349562 345.37375,6.856875 C344.897558,6.7894585 344.417191,6.75583281 343.93625,6.75624617 L343.9075,6.9575 Z M344.51125,18.960625 L344.1375,18.960625 C343.780417,18.9116384 343.434855,18.7996958 343.116875,18.63 C342.783228,18.428236 342.521669,18.1264365 342.369375,17.7675 C342.171364,17.2041419 342.304483,16.5773709 342.714375,16.143125 C343.322147,15.7258808 344.047591,15.5142929 344.784375,15.539375 C345.404817,15.5661403 345.999913,15.7930837 346.480625,16.18625 C346.713031,16.379203 346.853831,16.6608035 346.86875,16.9625 C346.909138,17.7639727 346.408976,18.493621 345.646875,18.745 C345.288872,18.9011563 344.901802,18.9795503 344.51125,18.975 L344.51125,18.960625 Z" id="Shape" fill="#FFFFFF" fill-rule="nonzero"></path>
                <path d="M345.69,11.111875 C345.630356,11.5461848 345.234154,11.8529214 344.79875,11.801875 C344.589517,11.780426 344.397944,11.6749894 344.267878,11.5096974 C344.137812,11.3444054 344.080389,11.1334087 344.10875,10.925 C344.160354,10.4883499 344.556162,10.1762084 344.992812,10.2278125 C345.429463,10.2794166 345.741604,10.6752249 345.69,11.111875 L345.69,11.111875 Z" id="Path" fill="#FFFFFF" fill-rule="nonzero"></path>
                <path d="M350.706875,13.498125 C350.669626,13.8160255 350.44438,14.080104 350.136334,14.1670277 C349.828288,14.2539515 349.498224,14.1465689 349.300293,13.895031 C349.102361,13.643493 349.075617,13.2974325 349.232551,13.0184702 C349.389485,12.7395079 349.699131,12.5826879 350.016875,12.62125 C350.449079,12.6737031 350.757542,13.0657084 350.706875,13.498125 L350.706875,13.498125 Z" id="Path" fill="#414042" fill-rule="nonzero"></path>
                <path d="M350.419375,19.06125 C350.397926,19.2704831 350.292489,19.4620561 350.127197,19.5921219 C349.961905,19.7221878 349.750909,19.7796115 349.5425,19.75125 C349.110296,19.6987969 348.801833,19.3067916 348.8525,18.874375 C348.928384,18.4644206 349.309565,18.1838426 349.72355,18.2332169 C350.137534,18.2825912 350.442035,18.6449478 350.419375,19.06125 L350.419375,19.06125 Z" id="Path" fill="#ED40A9" fill-rule="nonzero"></path>
                <path d="M342.570625,21.260625 C342.504041,21.6908827 342.112595,21.9939378 341.679375,21.950625 C341.468954,21.9255743 341.277397,21.817103 341.147673,21.6495433 C341.01795,21.4819837 340.960919,21.2693624 340.989375,21.059375 C341.044949,20.6227249 341.443975,20.3138014 341.880625,20.3693751 C342.317275,20.4249487 342.626199,20.8239749 342.570625,21.260625 L342.570625,21.260625 Z" id="Path" fill="#FFFFFF" fill-rule="nonzero"></path>
                <path d="M338.3875,18.069375 C338.335047,18.5015785 337.943042,18.8100417 337.510625,18.759375 C337.076315,18.6997305 336.769579,18.3035291 336.820625,17.868125 C336.842074,17.6588919 336.947511,17.4673189 337.112803,17.3372531 C337.278095,17.2071872 337.489091,17.1497635 337.6975,17.178125 C337.907921,17.2031757 338.099478,17.311647 338.229202,17.4792067 C338.358925,17.6467663 338.415956,17.8593876 338.3875,18.069375 L338.3875,18.069375 Z" id="Path" fill="#414042" fill-rule="nonzero"></path>
                <path d="M340.25625,13.066875 C340.203656,13.5007877 339.814421,13.8134516 339.379375,13.77125 C338.943326,13.7115531 338.632326,13.3180424 338.675,12.88 C338.734644,12.4456902 339.130846,12.1389536 339.56625,12.19 C339.998454,12.2424531 340.306917,12.6344584 340.25625,13.066875 L340.25625,13.066875 Z" id="Path" fill="#ED40A9" fill-rule="nonzero"></path>
                <path d="M438.595632,17.33625 C438.60144,23.6226454 434.819082,29.2932757 429.012879,31.7030056 C423.206675,34.1127356 416.520556,32.7868032 412.073345,28.3437059 C407.626134,23.9006087 406.294014,17.2157201 408.698369,11.4072886 C411.102725,5.59885712 416.769852,1.81124334 423.05625,1.81124334 C427.176226,1.80743521 431.128765,3.44141591 434.043377,6.35333176 C436.957989,9.26524761 438.595632,13.2162722 438.595632,17.33625 Z" id="Path" stroke="#FFFFFF" fill="#231F20" fill-rule="nonzero"></path>
                <path d="M431.85375,8.093125 C432.63,8.466875 433.1475,10.235 433.133125,11.385 C433.133125,11.658125 433.133125,11.715625 433.305625,11.87375 C434.094726,12.7765775 434.160168,14.1032708 433.46375,15.079375 C433.391875,15.194375 433.248125,15.338125 433.391875,15.5825 C433.742294,16.3642363 433.979472,17.191939 434.09625,18.040625 C434.09625,18.4 434.196875,18.356875 434.44125,18.356875 C435.007848,18.3532708 435.574189,18.3820678 436.1375,18.443125 C436.655,18.443125 437,19.00375 436.22375,19.046875 C435.893125,19.046875 434.78625,19.046875 434.585,19.046875 C434.38375,19.046875 434.125,19.046875 434.139375,19.363125 C434.127276,19.7676935 434.088861,20.1710457 434.024375,20.570625 C434.024375,20.743125 434.125,20.8725 434.4125,20.90125 C434.865405,20.9730962 435.312283,21.0788093 435.749375,21.2175 C435.93625,21.289375 436.123125,21.576875 435.82125,21.663125 C435.292032,21.6970802 434.760645,21.6632646 434.24,21.5625 C433.895,21.5625 433.78,21.5625 433.7225,21.893125 C433.612811,22.2513503 433.468375,22.5979979 433.29125,22.928125 C433.205,23.100625 433.29125,23.129375 433.420625,23.23 C433.55,23.330625 434.398125,23.7475 434.858125,23.934375 C435.47625,24.221875 435.318125,24.768125 434.714375,24.595625 C434.4125,24.509375 433.63625,24.135625 433.276875,23.963125 C432.9175,23.790625 432.88875,23.819375 432.745,23.963125 C431.726582,25.1149832 430.415128,25.9694153 428.95,26.435625 C426.141252,27.2091394 423.196898,27.3563572 420.325,26.866875 C418.175354,26.7196215 416.116146,25.9449195 414.4025,24.63875 C414.215625,24.46625 414.129375,24.509375 413.91375,24.63875 C413.363748,24.9011964 412.839218,25.213989 412.346875,25.573125 C411.9875,25.860625 411.5275,25.573125 411.93,25.141875 C412.374433,24.7552163 412.855932,24.4133519 413.3675,24.12125 C413.554375,24.12125 413.640625,23.963125 413.51125,23.819375 C413.255194,23.4975282 413.024502,23.1562954 412.82125,22.79875 C412.70625,22.554375 412.62,22.525625 412.346875,22.56875 L411.32625,22.74125 C410.851875,22.8275 410.823125,22.33875 411.24,22.209375 L412.16,21.9075 C412.375625,21.835625 412.39,21.806875 412.3325,21.634375 C412.191988,21.1908596 412.076802,20.7397151 411.9875,20.283125 C411.9875,20.01 411.84375,20.09625 411.6425,20.081875 C411.44125,20.0675 410.205,20.168125 409.960625,20.21125 C409.385625,20.340625 409.25625,19.80875 409.88875,19.6075 C410.428617,19.4907277 410.976347,19.4138533 411.5275,19.3775 C411.6425,19.3775 411.886875,19.3775 411.886875,19.17625 C411.827269,17.7784442 412.124068,16.3884359 412.749375,15.136875 C412.965,14.72 413.036875,14.734375 412.921875,14.375 C412.344116,12.826658 412.437885,11.1075647 413.180625,9.63125 C413.448869,8.96047743 414.151262,8.57025927 414.8625,8.696875 C416.113431,8.84309869 417.326767,9.218307 418.441875,9.80375 C418.603606,9.8670729 418.783269,9.8670729 418.945,9.80375 C420.115812,9.54744609 421.311488,9.42209293 422.51,9.43 C422.71125,9.43 422.74,9.43 422.869375,9.214375 C423.245887,8.49987458 423.846993,7.92907687 424.58,7.59 C425.699321,7.31991867 426.86421,7.80917208 427.455,8.7975 C427.584375,8.99875 427.641875,8.955625 427.929375,8.7975 C429.144899,8.19732148 430.505375,7.95313351 431.85375,8.093125 L431.85375,8.093125 Z" id="Path" fill="#FFFFFF" fill-rule="nonzero"></path>
                <path d="M422.725625,12.463125 C422.855,13.526875 423.6025,14.015625 424.939375,13.728125 C425.215045,13.686313 425.479226,13.5884681 425.715625,13.440625 C425.791494,13.3223729 425.791494,13.1707521 425.715625,13.0525 C425.629375,12.923125 424.695,12.693125 424.824375,11.615 C424.898236,11.0370374 425.353287,10.5819859 425.93125,10.508125 C426.338273,10.4947508 426.734764,10.6389291 427.038125,10.910625 C427.124375,10.9825 427.3975,10.824375 427.354375,10.60875 C427.158561,10.0189636 426.851097,9.4723616 426.44875,8.99875 C426.071946,8.50428124 425.451362,8.26048028 424.83875,8.36625 C423.645625,8.76875 422.625,11.025625 422.725625,12.463125 Z" id="Path" fill="#ED40A9" fill-rule="nonzero"></path>
                <path d="M432.299375,10.881875 C432.299375,11.054375 432.385625,11.284375 432.08375,11.226875 C431.441276,11.1649762 430.792893,11.2234769 430.171875,11.399375 C429.84125,11.514375 429.8125,11.485625 429.61125,11.313125 C429.272221,11.0436717 428.872517,10.8610908 428.446875,10.78125 C428.188125,10.709375 428.26,10.565625 428.145,10.2925 C428.03,10.019375 428.00125,9.818125 428.26,9.68875 C429.129259,9.15710308 430.117443,8.85076632 431.135,8.7975 C431.94,8.855 432.19875,10.134375 432.299375,10.881875 Z" id="Path" fill="#231F20" fill-rule="nonzero"></path>
                <path d="M413.583125,13.498125 C413.68375,13.699375 413.698125,13.6275 413.85625,13.498125 C413.959727,13.4180947 414.100661,13.4065999 414.215739,13.4688044 C414.330818,13.531009 414.398399,13.6552146 414.388125,13.785625 C414.266169,14.1107401 414.096611,14.4159434 413.885,14.69125 C413.149505,15.9157557 412.729646,17.3037606 412.663125,18.730625 C412.663125,19.190625 412.663125,19.305625 412.965,19.32 C413.3687,19.3082838 413.77034,19.3817544 414.14375,19.535625 C414.216161,19.6001004 414.246451,19.6996472 414.222224,19.7935276 C414.197997,19.8874079 414.123319,19.9598662 414.02875,19.98125 C413.784375,19.98125 413.33875,19.98125 413.10875,19.98125 C412.87875,19.98125 412.76375,19.98125 412.778125,20.15375 C412.852181,20.5824304 412.972682,21.0017755 413.1375,21.404375 C413.1375,21.519375 413.238125,21.576875 413.295625,21.576875 L413.97125,21.576875 C414.2875,21.576875 414.445625,21.76375 414.345,21.893125 C414.244375,22.0225 413.956875,22.10875 413.726875,22.180625 C413.496875,22.2525 413.4825,22.28125 413.554375,22.425 C413.71789,22.7625938 413.92577,23.0768313 414.1725,23.359375 C414.345,23.5175 414.388125,23.575 414.618125,23.474375 C414.855988,23.3819709 415.101236,23.3098391 415.35125,23.25875 C415.44261,23.2426239 415.535612,23.2766433 415.595004,23.3479133 C415.654396,23.4191833 415.671087,23.5167953 415.63875,23.60375 C415.547119,23.7452643 415.41034,23.8516477 415.250625,23.905625 C415.0925,23.905625 414.905625,24.06375 415.0925,24.221875 C416.378453,25.1151066 417.855108,25.6959243 419.405,25.918125 C422.541363,26.5649971 425.788206,26.4367024 428.86375,25.544375 C429.986643,25.1905884 430.984453,24.5220554 431.73875,23.618125 C431.85375,23.43125 431.580625,23.445625 431.408125,23.301875 C431.235625,23.158125 431.22125,23.08625 431.3075,22.928125 C431.39375,22.77 431.753125,22.79875 431.983125,22.813125 C432.213125,22.8275 432.31375,22.928125 432.42875,22.669375 C432.54375,22.410625 433.075625,21.47625 432.874375,21.404375 C432.673125,21.3325 432.4,21.318125 432.270625,21.145625 C432.207411,21.0875279 432.184687,20.9974647 432.212771,20.9163319 C432.240856,20.8351991 432.314397,20.7784584 432.4,20.771875 C432.5725,20.771875 432.6875,20.771875 432.975,20.771875 C433.2625,20.771875 433.133125,20.771875 433.161875,20.628125 C433.256826,20.2231236 433.300295,19.8077597 433.29125,19.391875 C433.29125,19.190625 433.1475,19.205 432.83125,19.2625 C432.533474,19.3328517 432.223401,19.3328517 431.925625,19.2625 C431.695625,19.17625 431.68125,18.816875 432.069375,18.6875 C432.4575,18.558125 432.845625,18.529375 433.104375,18.443125 C433.363125,18.356875 433.305625,18.443125 433.276875,18.126875 C433.207635,17.5062888 433.042767,16.9001567 432.788125,16.33 C432.65875,16.0425 432.529375,16.229375 432.356875,16.33 C431.787463,16.8883734 431.011701,17.1851414 430.215,17.149375 C429.36941,16.9660612 428.651343,16.4116716 428.26,15.64 C428.130625,15.43875 428.17375,15.38125 427.8575,15.366875 C427.168734,15.2722285 426.547033,14.9043887 426.1325,14.34625 C425.945625,13.986875 425.859375,14.130625 425.3275,14.34625 C424.569846,14.6385276 423.723921,14.5967535 422.99875,14.23125 C421.56125,13.36875 421.90625,11.428125 422.165,10.695 C422.3375,10.26375 422.165,10.335625 421.82,10.335625 C420.851777,10.3662254 419.888865,10.491404 418.945,10.709375 C418.592882,10.8740411 418.177032,10.8178451 417.88125,10.565625 C416.860625,9.9475 414.848125,9.22875 414.215625,9.63125 C413.30724,10.7046696 413.064086,12.1912234 413.583125,13.498125 L413.583125,13.498125 Z" id="Path" fill="#231F20" fill-rule="nonzero"></path>
                <path d="M426.520625,11.399375 C426.277119,11.659657 426.091016,11.9681965 425.974375,12.305 C425.974375,12.463125 425.485625,12.146875 425.514375,11.81625 C425.500005,11.5757882 425.629951,11.3497954 425.845,11.24125 C426.19,11.06875 426.606875,11.341875 426.520625,11.399375 Z" id="Path" fill="#ED40A9" fill-rule="nonzero"></path>
                <path d="M429.64,13.181875 C429.587223,13.7450237 429.26608,14.2481483 428.7775,14.533125 C428.26545,14.8046246 427.644257,14.7652415 427.170594,14.4312486 C426.696931,14.0972556 426.451225,13.5253638 426.535,12.951875 C426.570987,12.3566545 426.954034,11.8384155 427.5125,11.629375 C428.00937,11.4208417 428.579136,11.4875312 429.01442,11.8051704 C429.449703,12.1228096 429.687022,12.6450741 429.64,13.181875 Z" id="Path" fill="#ED40A9" fill-rule="nonzero"></path>
                <path d="M433.0325,12.73625 C433.301459,13.620248 433.064144,14.580544 432.414375,15.2375 C431.494375,16.30125 430.7325,16.675 429.941875,16.373125 C429.506418,16.2035407 429.151801,15.8746205 428.95,15.453125 C428.878125,15.309375 428.95,15.26625 429.15125,15.15125 C429.3525,15.03625 429.395625,14.95 429.539375,15.0075 C429.987507,15.2009975 430.505476,15.1348737 430.890625,14.835 C431.198289,14.5196835 431.298778,14.0563145 431.149375,13.641875 C431.003275,13.3360244 430.753798,13.0916382 430.445,12.951875 C430.30125,12.865625 430.30125,12.721875 430.286875,12.56375 C430.2725,12.405625 430.286875,12.27625 430.373125,12.21875 C430.659682,12.093313 430.966412,12.020282 431.27875,12.003125 C431.955316,11.892985 432.635607,12.1773687 433.0325,12.73625 L433.0325,12.73625 Z" id="Path" fill="#ED40A9" fill-rule="nonzero"></path>
                <path d="M430.3875,14.49 C430.18625,14.590625 429.84125,14.57625 429.941875,14.40375 C430.071162,14.1811754 430.186388,13.9507246 430.286875,13.71375 C430.286875,13.57 430.5025,13.71375 430.58875,13.88625 C430.694166,14.108921 430.605436,14.375113 430.3875,14.49 Z" id="Path" fill="#ED40A9" fill-rule="nonzero"></path>
                <path d="M416.78875,20.72875 C416.76874,20.9557415 416.84416,21.1808132 416.996899,21.3499175 C417.149639,21.5190217 417.3659,21.6168825 417.59375,21.62 C418.16875,21.62 418.384375,21.01625 418.384375,20.61375 C418.384375,20.21125 418.269375,19.535625 417.608125,19.535625 C416.946875,19.535625 416.78875,20.254375 416.78875,20.72875 Z" id="Path" fill="#FFFFFF" fill-rule="nonzero"></path>
                <path d="M427.756875,20.484375 C427.756875,21.116875 428.044375,21.548125 428.619375,21.53375 C429.194375,21.519375 429.3525,21.030625 429.338125,20.513125 C429.32375,19.995625 429.021875,19.46375 428.5475,19.46375 C428.073125,19.46375 427.756875,20.125 427.756875,20.484375 Z" id="Path" fill="#FFFFFF" fill-rule="nonzero"></path>
                <path d="M421.978125,22.381875 C421.978125,23.043125 422.53875,23.345 423.329375,23.345 C424.12,23.345 424.49375,22.85625 424.49375,22.410625 C424.390854,21.8103473 423.832749,21.3981114 423.22875,21.47625 C422.36625,21.404375 421.96375,21.87875 421.978125,22.381875 Z" id="Path" fill="#FFFFFF" fill-rule="nonzero"></path>
                <path d="M422.524375,22.381875 C422.524375,22.655 422.840625,22.841875 423.2575,22.841875 C423.674375,22.841875 423.904375,22.68375 423.904375,22.39625 C423.904375,22.10875 423.588125,21.921875 423.2,21.93625 C422.811875,21.950625 422.524375,22.065625 422.524375,22.381875 Z" id="Path" fill="#231F20" fill-rule="nonzero"></path>
                <path d="M399.179382,17.33625 C399.18519,23.6226454 395.402832,29.2932757 389.596629,31.7030056 C383.790425,34.1127356 377.104306,32.7868032 372.657095,28.3437059 C368.209884,23.9006087 366.877764,17.2157201 369.282119,11.4072886 C371.686475,5.59885712 377.353602,1.81124334 383.64,1.81124334 C387.759976,1.80743521 391.712515,3.44141591 394.627127,6.35333176 C397.541739,9.26524761 399.179382,13.2162722 399.179382,17.33625 L399.179382,17.33625 Z" id="Path" stroke="#FFFFFF" fill="#231F20" fill-rule="nonzero"></path>
                <path d="M393.90375,21.806875 C393.90375,24.35125 388.84375,26.6225 382.619375,26.406875 C376.006875,26.176875 371.550625,24.12125 371.550625,21.576875 C371.550625,19.0325 376.380625,17.1925 382.619375,17.1925 C388.858125,17.1925 393.90375,19.248125 393.90375,21.806875 Z" id="Path" stroke="#FFFFFF" stroke-width="0.83375" fill="#231F20" fill-rule="nonzero"></path>
                <path d="M391.345,12.5925 C391.345,12.2475 392.4375,11.945625 392.681875,11.888125 C393.726327,11.5753773 394.858261,11.8501186 395.643125,12.606875 C397.080625,14.044375 396.821875,17.04875 395.643125,18.644375 C394.389141,20.1671281 392.512491,21.0393739 390.54,21.01625 C390.324375,21.01625 389.260625,21.1025 389.1025,20.886875 C388.944375,20.67125 389.461875,20.139375 389.53375,19.995625 C389.7925,19.4925 390.065625,18.989375 390.324375,18.471875 C390.324375,18.37125 392.06375,18.19875 392.265,18.126875 C393.470841,17.8548761 394.269335,16.7070399 394.105,15.481875 C393.716875,13.82875 392.035,14.561875 391.071875,15.26625 L391.345,12.5925 Z" id="Path" stroke="#FFFFFF" stroke-width="0.83375" fill="#231F20" fill-rule="nonzero"></path>
                <path d="M373.9225,11.686875 C373.89144,13.3907107 374.050549,15.092694 374.396875,16.76125 C374.971875,19.2625 375.834375,21.275 377.731875,22.410625 C379.530531,23.2343716 381.509597,23.5856557 383.481875,23.43125 C384.405218,23.4158034 385.324824,23.3098802 386.2275,23.115 C387.820039,22.6903212 389.182559,21.658109 390.0225,20.24 C390.697552,19.2217278 391.143841,18.0692212 391.330625,16.861875 C391.647539,15.1317568 391.782441,13.3732125 391.733125,11.615 L373.9225,11.686875 Z" id="Path" stroke="#FFFFFF" stroke-width="0.83375" fill="#231F20" fill-rule="nonzero"></path>
                <path d="M391.675625,11.341875 C392.221875,13.82875 387.78,14.791875 382.86375,14.791875 C377.9475,14.791875 373.8075,13.6275 373.89375,11.35625 C373.89375,9.80375 377.875625,8.59625 382.791875,8.59625 C387.708125,8.59625 391.345,9.818125 391.675625,11.341875 Z" id="Path" stroke="#FFFFFF" stroke-width="0.83375" fill="#231F20" fill-rule="nonzero"></path>
                <path d="M391.345,12.16125 C391.345,13.42625 388.283125,14.57625 382.72,14.63375 C377.961875,14.63375 374.253125,13.34 374.253125,12.075 C374.253125,10.81 377.91875,9.875625 382.676875,9.875625 C387.435,9.875625 391.345,10.881875 391.345,12.16125 Z" id="Path" fill="#98989A" fill-rule="nonzero"></path>
                <path d="M382.216875,11.571875 C381.994326,11.649798 381.809467,11.8089819 381.699375,12.0175 C381.576442,12.2362003 381.576442,12.5031747 381.699375,12.721875 C381.875175,12.9502822 382.115577,13.1205673 382.389375,13.210625 C382.816184,13.2981522 383.256316,13.2981522 383.683125,13.210625 C383.968957,13.1693267 384.232407,13.0325352 384.430625,12.8225 C384.611295,12.6301178 384.671998,12.3541941 384.58875,12.10375 C384.442985,11.8488882 384.214867,11.651186 383.941875,11.543125 C383.643828,11.4243763 383.328006,11.3563531 383.0075,11.341875 C382.732955,11.3738115 382.465709,11.451556 382.216875,11.571875 Z" id="Path" fill="#FFFFFF" fill-rule="nonzero"></path>
                <path d="M380.376875,12.118125 C380.46151,11.9520719 380.623133,11.8389356 380.808125,11.81625 C380.951875,11.81625 381.153125,11.81625 381.1675,11.81625 C381.193455,11.9054418 381.193455,12.0001832 381.1675,12.089375 C381.130981,12.2356722 381.130981,12.3887028 381.1675,12.535 C381.1675,12.535 381.1675,12.65 381.066875,12.635625 C380.96625,12.62125 380.693125,12.635625 380.606875,12.535 C380.520625,12.434375 380.290625,12.319375 380.376875,12.118125 Z" id="Path" fill="#FFFFFF" fill-rule="nonzero"></path>
                <path d="M380.233125,11.64375 C380.487603,11.5210448 380.772596,11.4760459 381.0525,11.514375 C381.250582,11.5648784 381.458168,11.5648784 381.65625,11.514375 C381.785625,11.514375 381.929375,11.313125 381.756875,11.155 C381.472491,10.974773 381.162247,10.8390411 380.836875,10.7525 C380.490591,10.649792 380.133681,10.5870916 379.773125,10.565625 C379.263323,10.5738374 378.76576,10.7231064 378.335625,10.996875 C378.093725,11.3227024 377.953676,11.7128389 377.933125,12.118125 C377.935006,12.4423736 378.046457,12.7564623 378.249375,13.009375 C378.477242,13.210596 378.747453,13.3579838 379.04,13.440625 C379.439176,13.5137778 379.848324,13.5137778 380.2475,13.440625 C380.578125,13.354375 381.153125,13.31125 381.31125,13.225 C381.469375,13.13875 381.31125,12.894375 381.239375,12.88 C380.924653,12.8758793 380.611328,12.8373163 380.305,12.765 C380.103243,12.6763463 379.940012,12.5182162 379.845,12.319375 C379.798277,12.0307113 379.960226,11.7488008 380.233125,11.64375 L380.233125,11.64375 Z" id="Path" fill="#FFFFFF" fill-rule="nonzero"></path>
                <path d="M384.70375,11.514375 C384.70375,11.629375 384.81875,11.70125 385.02,11.70125 C385.292273,11.6839036 385.565375,11.7180414 385.825,11.801875 C386.011875,11.9025 386.285,12.0175 386.270625,12.290625 C386.266252,12.5379942 386.121166,12.7612026 385.896875,12.865625 C385.665571,12.9201951 385.429832,12.9538721 385.1925,12.96625 C385.034375,12.96625 384.948125,12.96625 384.87625,13.038125 C384.829136,13.0913513 384.811282,13.164378 384.828522,13.2333382 C384.845762,13.3022985 384.895881,13.3583317 384.9625,13.383125 C385.271327,13.4952341 385.597085,13.5535789 385.925625,13.555625 C386.345896,13.5324734 386.752565,13.39857 387.104375,13.1675 C387.407596,12.8779306 387.583398,12.4797892 387.593125,12.060625 C387.562698,11.7049112 387.358152,11.3873273 387.046875,11.2125 C386.696777,11.0462342 386.313159,10.9626253 385.925625,10.968125 C385.601459,11.0073698 385.283026,11.0845657 384.976875,11.198125 C384.775625,11.24125 384.6175,11.35625 384.70375,11.514375 Z" id="Path" fill="#FFFFFF" fill-rule="nonzero"></path>
                <path d="M385.135,12.16125 C385.135,12.0175 385.135,11.87375 385.235625,11.916875 C385.33625,11.96 385.724375,11.916875 385.753125,12.16125 C385.781875,12.405625 385.825,12.50625 385.68125,12.578125 C385.5375,12.65 385.264375,12.664375 385.206875,12.578125 C385.149375,12.491875 385.206875,12.42 385.206875,12.3625 C385.206875,12.305 385.16375,12.146875 385.135,12.16125 Z" id="Path" fill="#FFFFFF" fill-rule="nonzero"></path>
                <path d="M382.835,21.749375 C382.835,21.749375 379.6725,20.311875 379.6725,18.31375 C379.6725,16.9625 380.434375,16.430625 381.3975,16.430625 C381.767638,16.8321904 382.288871,17.0606274 382.835,17.0606274 C383.381129,17.0606274 383.902362,16.8321904 384.2725,16.430625 C385.436875,16.430625 385.94,17.235625 385.94,18.31375 C385.9975,20.2975 382.835,21.749375 382.835,21.749375 Z" id="Path" fill="#ED40A9" fill-rule="nonzero"></path>
                <path d="M391.675625,11.341875 C392.221875,13.82875 387.78,14.791875 382.86375,14.791875 C377.9475,14.791875 373.8075,13.6275 373.89375,11.35625 C373.89375,9.80375 377.875625,8.59625 382.791875,8.59625 C387.708125,8.59625 391.345,9.818125 391.675625,11.341875 Z" id="Path" stroke="#FFFFFF" stroke-width="0.83375"></path>
                <polygon id="Path" fill="#FFFFFF" fill-rule="nonzero" points="0 5.865 4.499375 5.865 4.499375 14.648125 12.261875 14.648125 12.261875 5.865 16.7325 5.865 16.7325 29.138125 12.261875 29.138125 12.261875 18.931875 4.499375 18.931875 4.499375 29.138125 0 29.138125"></polygon>
                <polygon id="Path" fill="#FFFFFF" fill-rule="nonzero" points="25.170625 5.865 37.86375 5.865 37.86375 10.1775 29.569375 10.1775 29.569375 14.389375 37.86375 14.389375 37.86375 18.701875 29.569375 18.701875 29.569375 24.825625 37.86375 24.825625 37.86375 29.138125 25.170625 29.138125"></polygon>
                <polygon id="Path" fill="#FFFFFF" fill-rule="nonzero" points="46.345 5.865 50.6575 5.865 50.6575 24.911875 57.111875 24.911875 57.111875 29.138125 46.345 29.138125"></polygon>
                <polygon id="Path" fill="#FFFFFF" fill-rule="nonzero" points="64.644375 5.865 69.071875 5.865 69.071875 24.911875 75.52625 24.911875 75.52625 29.138125 64.644375 29.138125"></polygon>
                <path d="M93.7825,4.6575 C96.9850801,4.62211901 100.059793,5.91235395 102.278125,8.2225 C104.611282,10.5189779 105.895552,13.6750577 105.82875,16.948125 C105.894416,20.182951 104.625908,23.3022308 102.32125,25.573125 C100.027027,27.8598716 96.9144698,29.1355446 93.675286,29.1168563 C90.4361021,29.0977541 87.338639,27.785856 85.07125,25.4725 C81.6240744,21.9709901 80.6064741,16.7467476 82.4874177,12.2074037 C84.3683612,7.66805989 88.7827776,4.69465305 93.69625,4.6575 L93.7825,4.6575 Z M93.7825,8.97 C91.7342351,8.92345792 89.7613221,9.74289533 88.34875,11.226875 C86.8588308,12.7612833 86.0637849,14.8398345 86.149375,16.976875 C86.0499207,19.3386695 87.0799699,21.6069126 88.92375,23.08625 C90.3074162,24.2368677 92.054899,24.8584213 93.854375,24.84 C95.8892256,24.8736215 97.8429452,24.0430295 99.230625,22.554375 C100.700621,21.0646854 101.500015,19.0402454 101.444375,16.948125 C101.487533,14.8469708 100.684699,12.8165772 99.21625,11.313125 C97.811084,9.81012199 95.8399615,8.96535518 93.7825,8.984375 L93.7825,8.97 Z" id="Shape" fill="#FFFFFF" fill-rule="nonzero"></path>
                <path d="M110.788125,10.076875 L110.788125,10.076875 C110.258202,8.80803871 109.067435,7.93850208 107.6975,7.82 C106.973423,7.7086464 106.236577,7.7086464 105.5125,7.82 L105.095625,7.90625 L104.951875,7.90625 C105.055276,8.08472139 105.141897,8.27240056 105.210625,8.466875 L105.210625,8.466875 C105.253137,8.61241925 105.282012,8.76160425 105.296875,8.9125 L105.685,8.840625 C106.294494,8.74357577 106.915506,8.74357577 107.525,8.840625 C108.495872,8.91132835 109.350533,9.50683385 109.753125,10.393125 C110.31375,12.290625 108.718125,13.785625 107.855625,14.605 C106.987863,15.4298471 105.816257,15.8568326 104.62125,15.78375 C104.293703,15.7257741 103.97799,15.6140604 103.686875,15.453125 C103.049322,15.0113905 102.586516,14.3604111 102.37875,13.613125 L102.37875,13.36875 C102.012079,13.4268515 101.638546,13.4268515 101.271875,13.36875 L101.271875,13.5125 L101.386875,13.871875 C101.663889,14.8877754 102.303021,15.7672209 103.18375,16.344375 C103.587156,16.5754836 104.031277,16.7267778 104.491875,16.79 C106.002438,16.9365559 107.500932,16.4107683 108.58875,15.3525 L108.58875,15.3525 C109.48,14.590625 111.57875,12.635625 110.788125,10.076875 Z" id="Path" fill="#231F20" fill-rule="nonzero"></path>
                <path d="M97.89375,9.703125 L97.563125,9.789375 L97.563125,9.789375 C96.7887041,10.0128459 95.9777848,10.0812367 95.176875,9.990625 C94.3596075,9.90528046 93.6355339,9.42616664 93.2374485,8.70732185 C92.8393631,7.98847705 92.8174484,7.12051825 93.17875,6.3825 C93.7310494,4.35860021 95.0583026,2.63368751 96.873125,1.58125 C97.2767283,1.39328215 97.7281222,1.3330963 98.166875,1.40875 C98.5277564,1.46043055 98.8693032,1.6039792 99.15875,1.825625 C99.9640472,2.530873 100.556488,3.44691602 100.869375,4.470625 L100.94125,4.715 L100.94125,4.715 C101.061177,5.14450796 101.15242,5.58151304 101.214375,6.023125 C101.548402,5.97994469 101.886598,5.97994469 102.220625,6.023125 L102.335625,6.023125 C102.256497,5.45457627 102.136393,4.89248785 101.97625,4.34125 L101.97625,4.0825 L101.97625,4.0825 C101.597005,2.86293408 100.879148,1.77617791 99.90625,0.94875 C99.4856592,0.621353023 98.9927237,0.399532059 98.46875,0.301875 C97.8151939,0.19670961 97.1451359,0.286717396 96.5425,0.560625 C94.4358583,1.73561166 92.8839917,3.70130942 92.23,6.023125 L92.23,6.023125 C91.7757534,7.06389417 91.8423189,8.25846788 92.4093842,9.24232626 C92.9764496,10.2261846 93.9767324,10.8825927 95.105,11.01125 C96.0689194,11.1345447 97.047942,11.0562229 97.98,10.78125 L98.1525,10.78125 C98.0171044,10.4354767 97.9300343,10.072685 97.89375,9.703125 Z" id="Path" fill="#231F20" fill-rule="nonzero"></path>
                <path d="M102.306875,13.383125 C102.627404,13.3234454 102.937397,13.2168854 103.226875,13.066875 C103.551947,12.8936687 103.847835,12.6705397 104.10375,12.405625 L104.10375,12.33375 C104.471276,11.9980419 104.760774,11.5858756 104.951875,11.12625 C105.095694,10.7903539 105.1971,10.4378469 105.25375,10.076875 C105.304067,9.70481852 105.304067,9.32768148 105.25375,8.955625 C105.238887,8.80472925 105.210012,8.65554425 105.1675,8.51 L105.1675,8.51 C105.098772,8.31552556 105.012151,8.12784639 104.90875,7.949375 C104.578291,7.39799064 104.119694,6.9344625 103.571875,6.598125 C103.184127,6.35824899 102.755178,6.19251878 102.306875,6.109375 L102.191875,6.109375 C101.857848,6.06619469 101.519652,6.06619469 101.185625,6.109375 C100.956722,6.13025824 100.730425,6.17359159 100.51,6.23875 C100.154213,6.33774863 99.8185162,6.49829945 99.518125,6.713125 L99.4175,6.713125 C98.9014578,7.0764916 98.4939915,7.57340183 98.23875,8.150625 C98.0772065,8.48716811 97.9658164,8.84555353 97.908125,9.214375 C97.893316,9.39615723 97.893316,9.57884277 97.908125,9.760625 C97.8965296,10.1283294 97.9352207,10.4958943 98.023125,10.853125 L98.023125,10.853125 L98.023125,10.853125 C98.409482,12.0763514 99.407168,13.0086153 100.65375,13.31125 L100.97,13.31125 L101.185625,13.31125 C101.553156,13.3948093 101.931683,13.4190738 102.306875,13.383125 L102.306875,13.383125 Z M100.869375,12.27625 C100.010714,12.0481934 99.3277714,11.397772 99.058125,10.55125 C98.780348,9.45210615 99.1744403,8.2923486 100.064375,7.59 L100.064375,7.59 C100.635385,7.19761948 101.334727,7.03821066 102.019375,7.144375 C102.36885,7.19509455 102.702711,7.32274736 102.996875,7.518125 C103.511102,7.82142205 103.910426,8.28645763 104.1325,8.840625 C104.392839,9.81478967 104.107024,10.8536152 103.385,11.5575 L103.385,11.5575 C102.829503,12.1780565 101.989227,12.4617861 101.17125,12.305 L100.926875,12.305 L100.869375,12.27625 Z" id="Shape" fill="#231F20" fill-rule="nonzero"></path>
                <path d="M105.2825,10.076875 L105.2825,10.076875 L105.2825,10.076875 C105.442692,10.1389804 105.596701,10.2159848 105.7425,10.306875 C106.310707,10.7371543 106.602086,11.440864 106.504375,12.146875 C106.423887,12.5912241 106.189842,12.9931708 105.843125,13.2825 C105.41643,13.6530069 104.850286,13.8207532 104.290625,13.7425 L104.204375,13.7425 L103.974375,13.670625 C103.795686,13.6076422 103.626419,13.5205905 103.47125,13.411875 C103.334792,13.2948623 103.205202,13.1700714 103.083125,13.038125 C102.793647,13.1881354 102.483654,13.2946954 102.163125,13.354375 L102.163125,13.59875 C102.370891,14.3460361 102.833697,14.9970155 103.47125,15.43875 C103.762365,15.5996854 104.078078,15.7113991 104.405625,15.769375 C105.600632,15.8424576 106.772238,15.4154721 107.64,14.590625 C108.5025,13.77125 110.098125,12.27625 109.5375,10.37875 C109.134908,9.49245885 108.280247,8.89695335 107.309375,8.82625 C106.699881,8.72920077 106.078869,8.72920077 105.469375,8.82625 L105.08125,8.898125 C105.204437,9.27937627 105.272213,9.67634804 105.2825,10.076875 L105.2825,10.076875 Z" id="Path" fill="#ED40A9" fill-rule="nonzero"></path>
                <path d="M104.491875,12.67875 L104.578125,12.67875 C104.833186,12.7137634 105.090747,12.6349181 105.2825,12.463125 C105.43057,12.3432338 105.532232,12.175491 105.57,11.98875 C105.606887,11.6998024 105.492908,11.4121422 105.268125,11.226875 L105.009375,11.0975 C104.818274,11.5571256 104.528776,11.9692919 104.16125,12.305 L104.16125,12.376875 L104.33375,12.535 L104.491875,12.67875 Z" id="Path" fill="#ED40A9" fill-rule="nonzero"></path>
                <path d="M104.118125,13.756875 L104.348125,13.82875 L104.434375,13.82875 C104.994036,13.9070032 105.56018,13.7392569 105.986875,13.36875 C106.333592,13.0794208 106.567637,12.6774741 106.648125,12.233125 C106.745836,11.527114 106.454457,10.8234043 105.88625,10.393125 C105.740451,10.3022348 105.586442,10.2252304 105.42625,10.163125 L105.42625,10.163125 L105.42625,10.163125 C105.3696,10.5240969 105.268194,10.8766039 105.124375,11.2125 L105.383125,11.341875 C105.607908,11.5271422 105.721887,11.8148024 105.685,12.10375 C105.647232,12.290491 105.54557,12.4582338 105.3975,12.578125 C105.205747,12.7499181 104.948186,12.8287634 104.693125,12.79375 L104.606875,12.79375 L104.39125,12.67875 L104.21875,12.520625 C103.962835,12.7855397 103.666947,13.0086687 103.341875,13.181875 C103.463952,13.3138214 103.593542,13.4386123 103.73,13.555625 C103.851962,13.6361286 103.982053,13.7035829 104.118125,13.756875 Z" id="Path" fill="#231F20" fill-rule="nonzero"></path>
                <path d="M100.97,4.715 L100.898125,4.470625 C100.585238,3.44691602 99.9927972,2.530873 99.1875,1.825625 C98.8980532,1.6039792 98.5565064,1.46043055 98.195625,1.40875 C97.7568722,1.3330963 97.3054783,1.39328215 96.901875,1.58125 C95.0870526,2.63368751 93.7597994,4.35860021 93.2075,6.3825 C92.8461984,7.12051825 92.8681131,7.98847705 93.2661985,8.70732185 C93.6642839,9.42616664 94.3883575,9.90528046 95.205625,9.990625 C96.0065348,10.0812367 96.8174541,10.0128459 97.591875,9.789375 L97.591875,9.789375 L97.9225,9.703125 C97.907691,9.52134277 97.907691,9.33865723 97.9225,9.156875 L97.649375,9.013125 L97.649375,9.013125 L97.419375,8.855 C96.8162647,8.39910539 96.5170145,7.64543816 96.643125,6.9 L96.643125,6.9 C96.7551325,6.09836284 97.3123275,5.4297288 98.080625,5.175 C98.3921952,5.07901684 98.7213845,5.05445048 99.04375,5.103125 C99.6474458,5.18095869 100.179646,5.53753293 100.48125,6.06625 L100.5675,6.224375 C100.787925,6.15921659 101.014222,6.11588324 101.243125,6.095 C101.18117,5.65338804 101.089927,5.21638296 100.97,4.786875 L100.97,4.715 Z" id="Path" fill="#ED40A9" fill-rule="nonzero"></path>
                <path d="M98.856875,6.12375 C98.7105778,6.08723148 98.5575472,6.08723148 98.41125,6.12375 C98.0230678,6.2364382 97.7399927,6.57046682 97.6925,6.971875 C97.6115261,7.31813705 97.73412,7.68034622 98.00875,7.90625 L98.138125,8.006875 L98.2675,8.006875 C98.5227415,7.42965183 98.9302078,6.9327416 99.44625,6.569375 L99.546875,6.569375 L99.546875,6.454375 C99.384006,6.23890841 99.1268512,6.1156884 98.856875,6.12375 Z" id="Path" fill="#ED40A9" fill-rule="nonzero"></path>
                <path d="M99.029375,5.045625 C98.7070095,4.99695048 98.3778202,5.02151684 98.06625,5.1175 C97.2979525,5.3722288 96.7407575,6.04086284 96.62875,6.8425 L96.62875,6.8425 C96.5026395,7.58793816 96.8018897,8.34160539 97.405,8.7975 L97.635,8.955625 L97.635,8.955625 L97.908125,9.099375 C97.9658164,8.73055353 98.0772065,8.37216811 98.23875,8.035625 L98.109375,8.035625 L97.98,7.935 C97.70537,7.70909622 97.5827761,7.34688705 97.66375,7.000625 C97.7112427,6.59921682 97.9943178,6.2651882 98.3825,6.1525 C98.5287972,6.11598148 98.6818278,6.11598148 98.828125,6.1525 C99.0907915,6.17896375 99.325405,6.32826327 99.460625,6.555 L99.460625,6.67 C99.7610162,6.45517445 100.096713,6.29462363 100.4525,6.195625 L100.36625,6.0375 C100.092256,5.52283207 99.6013763,5.15863118 99.029375,5.045625 L99.029375,5.045625 Z" id="Path" fill="#231F20" fill-rule="nonzero"></path>
                <path d="M101.156875,12.319375 C101.974852,12.4761611 102.815128,12.1924315 103.370625,11.571875 L103.370625,11.571875 C104.092649,10.8679902 104.378464,9.82916467 104.118125,8.855 C103.896051,8.30083263 103.496727,7.83579705 102.9825,7.5325 C102.688336,7.33712236 102.354475,7.20946955 102.005,7.15875 C101.320352,7.05258566 100.62101,7.21199448 100.05,7.604375 L100.05,7.604375 C99.1600653,8.3067236 98.765973,9.46648115 99.04375,10.565625 C99.3133964,11.412147 99.9963389,12.0625684 100.855,12.290625 L100.855,12.290625 L101.156875,12.319375 Z" id="Path" fill="#ED40A9" fill-rule="nonzero"></path>
                <polygon id="Path" fill="#FFFFFF" fill-rule="nonzero" points="120.60625 5.821875 125.09125 5.821875 125.09125 13.843125 131.401875 5.821875 136.720625 5.821875 128.59875 16.215 137.51125 29.1525 132.264375 29.1525 125.076875 18.816875 125.076875 29.1525 120.591875 29.1525"></polygon>
                <polygon id="Path" fill="#FFFFFF" fill-rule="nonzero" points="145.920625 5.821875 150.319375 5.821875 150.319375 29.095 145.920625 29.095"></polygon>
                <polygon id="Path" fill="#FFFFFF" fill-rule="nonzero" points="159.548125 5.821875 172.41375 5.821875 172.41375 10.134375 168.173125 10.134375 168.173125 29.0375 163.67375 29.0375 163.67375 10.191875 159.548125 10.191875"></polygon>
                <polygon id="Path" fill="#FFFFFF" fill-rule="nonzero" points="180.0325 5.821875 192.898125 5.821875 192.898125 10.134375 188.6575 10.134375 188.6575 29.0375 184.1725 29.0375 184.1725 10.191875 180.0325 10.191875"></polygon>
                <polygon id="Path" fill="#FFFFFF" fill-rule="nonzero" points="201.178125 5.821875 205.9075 5.821875 210.22 14.2025 214.5325 5.821875 219.233125 5.821875 212.419375 19.018125 212.419375 29.080625 207.963125 29.080625 207.963125 19.018125"></polygon>
                <path d="M220.383125,6.35375 C220.492076,6.13405282 220.637945,5.93469729 220.814375,5.764375 C221.000951,5.58481378 221.22065,5.44322997 221.46125,5.3475 C221.715685,5.26039423 221.982947,5.21666037 222.251875,5.218125 C222.517578,5.21432382 222.781403,5.26318032 223.028125,5.361875 C223.2617,5.45642548 223.476048,5.59282885 223.660625,5.764375 C223.842285,5.94119433 223.988638,6.15096711 224.091875,6.3825 C224.201197,6.62187987 224.259922,6.88125124 224.264375,7.144375 C224.253107,7.40663341 224.194673,7.6647153 224.091875,7.90625 C223.985643,8.13971689 223.834182,8.34980802 223.64625,8.524375 C223.461673,8.69592115 223.247325,8.83232452 223.01375,8.926875 C222.760779,9.01967878 222.492482,9.06358203 222.223125,9.05625 C221.957422,9.06005118 221.693597,9.01119468 221.446875,8.9125 C221.208788,8.81834933 220.98965,8.68199676 220.8,8.51 C220.619883,8.33187555 220.473745,8.12241022 220.36875,7.891875 C220.262425,7.64700246 220.20856,7.38257693 220.210625,7.115625 C220.209617,6.85187266 220.268604,6.5913449 220.383125,6.35375 M220.699375,7.79125 C220.777987,7.98965493 220.895261,8.17045108 221.044375,8.323125 C221.196049,8.47348497 221.377115,8.59093334 221.57625,8.668125 C221.780756,8.75504139 222.000921,8.79907428 222.223125,8.7975 C222.44833,8.79539372 222.671682,8.75654991 222.884375,8.6825 C223.287766,8.52774551 223.606496,8.20901613 223.76125,7.805625 C223.848166,7.60111881 223.892199,7.38095433 223.890625,7.15875 C223.895253,6.93626476 223.851093,6.7154659 223.76125,6.511875 C223.69147,6.31243944 223.578583,6.13083867 223.430625,5.98 C223.277149,5.8354341 223.096311,5.72302143 222.89875,5.649375 C222.693048,5.56445074 222.474185,5.51581456 222.251875,5.505625 C222.024876,5.50248211 221.799701,5.54653819 221.590625,5.635 C221.393227,5.71555254 221.212785,5.83259639 221.05875,5.98 C220.909078,6.12109384 220.79143,6.29266517 220.71375,6.483125 C220.61611,6.68461258 220.566885,6.9061225 220.57,7.13 C220.566857,7.35699858 220.610913,7.58217408 220.699375,7.79125 M222.366875,6.023125 C222.587065,6.00324755 222.806921,6.06460273 222.985,6.195625 C223.131685,6.31308051 223.2077,6.49768731 223.18625,6.684375 C223.202513,6.8476536 223.138133,7.00860463 223.01375,7.115625 C222.886091,7.21690293 222.730702,7.27705361 222.568125,7.288125 L223.229375,8.28 L222.84125,8.28 L222.20875,7.3025 L221.80625,7.3025 L221.80625,8.265625 L221.446875,8.265625 L221.446875,6.023125 L222.366875,6.023125 Z M222.194375,7.029375 L222.43875,7.029375 L222.64,7.029375 C222.69825,7.01249337 222.745781,6.97024378 222.769375,6.914375 C222.793621,6.84948247 222.793621,6.77801753 222.769375,6.713125 C222.786153,6.65684896 222.786153,6.59690104 222.769375,6.540625 C222.742909,6.49202234 222.702978,6.45209109 222.654375,6.425625 L222.481875,6.425625 L221.80625,6.425625 L221.80625,7.144375 L222.194375,7.029375 Z" id="Shape" fill="#FFFFFF" fill-rule="nonzero"></path>
                <path d="M254.92625,9.329375 L251.82125,12.319375 C250.029144,10.2495881 247.442931,9.03746379 244.705625,8.984375 C242.600502,8.95705761 240.573605,9.78126009 239.084933,11.2699325 C237.59626,12.7586049 236.772058,14.7855015 236.799375,16.890625 C236.772833,18.3314364 237.124756,19.7539988 237.82,21.01625 C238.484917,22.228872 239.482378,23.2263332 240.695,23.89125 C241.955407,24.5779026 243.371045,24.9293372 244.80625,24.911875 C246.017658,24.9222886 247.217672,24.6773878 248.328125,24.193125 C249.64117,23.5326708 250.828297,22.647191 251.835625,21.576875 L254.84,24.710625 C253.434139,26.1530424 251.784386,27.3356091 249.966875,28.20375 C248.305182,28.8732564 246.525551,29.200826 244.734375,29.166875 C241.427462,29.2873237 238.216019,28.045358 235.850625,25.73125 C233.521751,23.3969357 232.267013,20.2002178 232.38625,16.905 C232.348895,14.7399951 232.895092,12.6048622 233.9675,10.72375 C235.050418,8.90637866 236.605227,7.41614646 238.466875,6.41125 C240.397338,5.32553115 242.577076,4.76078067 244.791875,4.77232126 C246.706781,4.77120343 248.599425,5.18307421 250.340625,5.98 C252.088494,6.76018605 253.651321,7.90168702 254.92625,9.329375 Z" id="Path" fill="#ED40A9" fill-rule="nonzero"></path>
                <path d="M267.72,5.865 L272.205,5.865 L281.160625,29.138125 L276.560625,29.138125 L274.735,24.35125 L265.2475,24.35125 L263.4075,29.138125 L258.8075,29.138125 L267.72,5.865 Z M269.99125,12.031875 L266.871875,20.024375 L273.09625,20.024375 L269.99125,12.031875 Z" id="Shape" fill="#ED40A9" fill-rule="nonzero"></path>
                <polygon id="Path" fill="#ED40A9" fill-rule="nonzero" points="287.52875 5.865 299.02875 5.865 299.02875 10.1775 291.84125 10.1775 291.84125 14.40375 299.02875 14.40375 299.02875 18.71625 291.84125 18.71625 291.84125 29.18125 287.4425 29.18125"></polygon>
                <polygon id="Path" fill="#ED40A9" fill-rule="nonzero" points="307.36625 5.865 320.07375 5.865 320.07375 10.1775 311.765 10.1775 311.765 14.389375 320.07375 14.389375 320.07375 18.701875 311.765 18.701875 311.765 24.825625 320.07375 24.825625 320.07375 29.138125 307.36625 29.138125"></polygon>
            </g>
        </g>
    </g>
</svg>