<svg width="36" height="36" viewBox="0 0 36 36" version="1.1" xmlns="http://www.w3.org/2000/svg" xmlns:xlink="http://www.w3.org/1999/xlink"><g id=" " stroke="none" stroke-width="1" fill="none" fill-rule="evenodd"><g transform="translate(-198.000000, -1996.000000)" fill="none"><g transform="translate(178.000000, 1242.000000)" fill="none"><g id=" " transform="translate(20.000000, 754.000000)" fill="none"><circle fill="#2D2A26" cx="17.7428571" cy="17.7428571" r="17.7428571"></circle><g id="Group-4" transform="translate(8.485714, 8.485714)" fill="#FFFFFF"><path d="M5.41541299,1.61332418 C3.31893049,1.61332418 1.61332418,3.31893049 1.61332418,5.41541299 L1.61332418,13.9444771 C1.61332418,16.0409596 3.31893049,17.7465659 5.41541299,17.7465659 L13.9444771,17.7465659 C16.0409596,17.7465659 17.7465659,16.0409596 17.7465659,13.9444771 L17.7465659,5.41541299 C17.7465659,3.31893049 16.0409596,1.61332418 13.9444771,1.61332418 L5.41541299,1.61332418 Z M13.9444771,19.3598901 L5.41541299,19.3598901 C2.42934354,19.3598901 -2.6036316e-14,16.9305466 -2.6036316e-14,13.9444771 L-2.6036316e-14,5.41541299 C-2.6036316e-14,2.42934354 2.42934354,-9.72936017e-14 5.41541299,-9.72936017e-14 L13.9444771,-9.72936017e-14 C16.9305466,-9.72936017e-14 19.3598901,2.42934354 19.3598901,5.41541299 L19.3598901,13.9444771 C19.3598901,16.9305466 16.9305466,19.3598901 13.9444771,19.3598901 L13.9444771,19.3598901 Z" id=" " fill="#FFFFFF"></path><path d="M9.67994505,6.4570051 C7.90282626,6.4570051 6.4570051,7.90282626 6.4570051,9.67994505 C6.4570051,11.4570638 7.90282626,12.902885 9.67994505,12.902885 C11.4570638,12.902885 12.902885,11.4570638 12.902885,9.67994505 C12.902885,7.90282626 11.4570638,6.4570051 9.67994505,6.4570051 M9.67994505,14.5199176 C7.0111945,14.5199176 4.83997253,12.3486956 4.83997253,9.67994505 C4.83997253,7.0111945 7.0111945,4.83997253 9.67994505,4.83997253 C12.3486956,4.83997253 14.5199176,7.0111945 14.5199176,9.67994505 C14.5199176,12.3486956 12.3486956,14.5199176 9.67994505,14.5199176" id=" " fill="#FFFFFF"></path><path d="M16.3349073,4.23497596 C16.3349073,4.90319607 15.7931343,5.44496909 15.1249141,5.44496909 C14.4566273,5.44496909 13.914921,4.90319607 13.914921,4.23497596 C13.914921,3.56668909 14.4566273,3.02498283 15.1249141,3.02498283 C15.7931343,3.02498283 16.3349073,3.56668909 16.3349073,4.23497596" id=" " fill="#FFFFFF"></path></g></g></g></g></g></svg>