<svg width="22" height="22" viewBox="0 0 19 20" version="1.1" xmlns="http://www.w3.org/2000/svg" xmlns:xlink="http://www.w3.org/1999/xlink"><g id=" " stroke="none" stroke-width="1" fill="none" fill-rule="evenodd"><g id=" " transform="translate(-1370.000000, -1778.000000)" fill="#2D2A26" fill-rule="nonzero"><g transform="translate(0.000000, 1768.000000)" fill="#2D2A26"><g fill="#2D2A26"><g transform="translate(1298.000000, 10.000000)" fill="#2D2A26"><g transform="translate(72.000000, 0.000000)" fill="#2D2A26"><g transform="translate(0.000000, 0.000000)" fill="#2D2A26"><path d="M1.63373162,0 C0.73644375,0 0,0.755303167 0,1.67562217 L0,18.2338801 C0,19.1541968 0.736434044,19.9095023 1.63373162,19.9095023 L13.3662684,19.9095023 C14.263566,19.9095023 15,19.1541968 15,18.2338801 L15,1.67562217 C15,0.755300905 14.2635551,0 13.3662684,0 L1.63373162,0 Z M1.63373162,0.904977376 L13.3662684,0.904977376 C13.788761,0.904977376 14.1176471,1.24227376 14.1176471,1.67562217 L14.1176471,18.2338801 C14.1176471,18.6672059 13.7887502,19.0045249 13.3662684,19.0045249 L1.63373162,19.0045249 C1.21124978,19.0045249 0.882352941,18.6672059 0.882352941,18.2338801 L0.882352941,1.67562217 C0.882352941,1.24227602 1.21124007,0.904977376 1.63373162,0.904977376 Z M5.91452206,2.71493213 C5.68349096,2.72599095 5.48310816,2.95168281 5.49393772,3.18863552 C5.50476706,3.42558824 5.72485566,3.63106403 5.95588235,3.6199095 L9.04411765,3.6199095 C9.27719581,3.62328959 9.49157426,3.4064991 9.49157426,3.16742081 C9.49157426,2.92834253 9.27719581,2.71155294 9.04411765,2.71493213 C8.00232463,2.71493145 6.95318449,2.71493213 5.91452206,2.71493213 Z M7.5,6.78733032 C6.16512287,6.78733032 5.07352941,7.90691403 5.07352941,9.2760181 C5.07352941,10.6451176 6.16512287,11.7647059 7.5,11.7647059 C8.83487713,11.7647059 9.92647059,10.6451176 9.92647059,9.2760181 C9.92647059,7.90691403 8.83487713,6.78733032 7.5,6.78733032 Z M7.5,7.69230769 C8.35801831,7.69230769 9.04411765,8.396 9.04411765,9.2760181 C9.04411765,10.1560452 8.35801831,10.8597285 7.5,10.8597285 C6.64198169,10.8597285 5.95588235,10.1560452 5.95588235,9.2760181 C5.95588235,8.396 6.64198169,7.69230769 7.5,7.69230769 Z M7.5,12.6696833 C6.08312051,12.6696833 4.89749868,13.0224095 4.03952206,13.6241516 C3.18154544,14.225871 2.64705882,15.1047964 2.64705882,16.0633484 L2.64705882,16.7420814 C2.64705882,16.9789975 2.85724213,17.1945701 3.08823529,17.1945701 L11.9117647,17.1945701 C12.1427579,17.1945701 12.3529412,16.9789975 12.3529412,16.7420814 L12.3529412,16.0633484 C12.3529412,15.1047964 11.8184546,14.225871 10.9604779,13.6241516 C10.1025013,13.0224095 8.91687949,12.6696833 7.5,12.6696833 Z M7.5,13.5746606 C8.77164993,13.5746606 9.78838103,13.8996493 10.4641544,14.373586 C11.1399278,14.8475452 11.4705882,15.4423077 11.4705882,16.0633484 L11.4705882,16.2895928 L3.52941176,16.2895928 L3.52941176,16.0633484 C3.52941176,15.4423077 3.86007221,14.8475452 4.53584559,14.373586 C5.21161897,13.8996493 6.22835007,13.5746606 7.5,13.5746606 Z" id=" " fill="#2D2A26"></path></g></g></g></g></g></g></g></svg>