<svg width="15" height="20" viewBox="0 0 15 20" version="1.1" xmlns="http://www.w3.org/2000/svg" xmlns:xlink="http://www.w3.org/1999/xlink"><g stroke="none" stroke-width="1" fill="none" fill-rule="evenodd"><g transform="translate(-973.000000, -1822.000000)" fill="#2D2A26" fill-rule="nonzero"><g transform="translate(776.000000, 1600.000000)" fill="#2D2A26"><g transform="translate(197.000000, 222.000000)" fill="#2D2A26"><g fill="#2D2A26"><path d="M7.07012712,19.755511 C7.09324018,19.7999635 7.11635323,19.8221898 7.13946629,19.8444161 C7.23191853,19.9555474 7.34748382,20 7.48616217,20 C7.62484052,20 7.76351887,19.9777737 7.87908417,19.8444161 C7.90219723,19.8221898 7.94842334,19.7777372 7.94842334,19.7332847 C9.49699827,17.5106571 11.0224601,15.2880296 12.5248089,13.0431757 C13.4724443,11.6206941 14.5818712,10.2204387 14.8823409,8.5312418 C15.2521498,6.50865072 14.7436626,4.41938082 13.4493313,2.7968627 C10.8837818,-0.448173535 5.89136113,-0.937151598 2.65553293,1.68554892 C1.10695801,2.93022035 0.159322606,4.75277495 0.0206442549,6.68646093 C-0.141147155,8.73127828 0.667809895,10.2871176 1.75412365,11.9540882 C3.46448998,14.5767888 5.26730855,17.177263 7.07012712,19.755511 Z M1.86968894,3.93040275 C4.08854256,0.374198662 9.38143297,-0.137005677 12.3167914,2.8857678 C13.7729141,4.39715454 14.3738536,6.55310327 13.9347055,8.55346808 C13.6111227,10.0426285 12.5248089,11.3762051 11.6696258,12.6431028 C10.3059553,14.7101464 8.9191718,16.7327375 7.50927523,18.7553286 C6.30739618,17.0661316 5.1286302,15.3547084 3.97297727,13.6432852 C3.18713328,12.4875189 2.37817623,11.3095262 1.68478447,10.1093074 C0.57535766,8.22007394 0.714036012,5.77518363 1.86968894,3.93040275 Z" id=" " fill="#2D2A26"></path><path d="M7.5,10.5263158 C9.27018634,10.5263158 10.7142857,9.10755149 10.7142857,7.36842105 C10.7142857,5.62929062 9.27018634,4.21052632 7.5,4.21052632 C5.72981366,4.21052632 4.28571429,5.62929062 4.28571429,7.36842105 C4.28571429,9.13043478 5.72981366,10.5263158 7.5,10.5263158 Z M7.5,5.17162471 C8.73447205,5.17162471 9.75931677,6.15560641 9.75931677,7.39130435 C9.75931677,8.60411899 8.75776398,9.61098398 7.5,9.61098398 C6.26552795,9.61098398 5.24068323,8.62700229 5.24068323,7.39130435 C5.24068323,6.15560641 6.24223602,5.17162471 7.5,5.17162471 Z" id=" " fill="#2D2A26"></path></g></g></g></g></g></svg>