<svg width="36" height="36" viewBox="0 0 36 36" version="1.1" xmlns="http://www.w3.org/2000/svg" xmlns:xlink="http://www.w3.org/1999/xlink"><g id=" " stroke="none" stroke-width="1" fill="none" fill-rule="evenodd"><g transform="translate(-318.000000, -1996.000000)" fill="none"><g transform="translate(178.000000, 1242.000000)" fill="none"><g transform="translate(140.000000, 754.000000)" fill="none"><g id=" -Copy" fill="#2D2A26"><circle cx="17.7428571" cy="17.7428571" r="17.7428571" fill="#2D2A26"></circle></g><path d="M19.5452496,21.9394307 C18.5794486,21.8571063 18.1736346,21.3292766 17.4162062,20.8225299 C16.9999166,23.2297649 16.4911688,25.5373572 14.9842825,26.7428571 C14.5185756,23.1045214 15.6670157,20.3717538 16.2003582,17.4710745 C15.2912619,15.7844288 16.3096684,12.3895523 18.227151,13.2260985 C20.5871122,14.2546512 16.1839617,19.4975593 19.139891,20.1523894 C22.2258539,20.8360833 23.4856536,14.2508864 21.5718146,12.1089467 C18.8067227,9.01651192 13.5231699,12.0386698 14.1728822,16.4656128 C14.3311542,17.5478771 15.345917,17.8764217 14.5782408,19.3698059 C12.8085546,18.9378539 12.2806775,17.3995427 12.3485409,15.348712 C12.4580788,11.9917349 15.0853944,9.6412234 17.7206806,9.31594173 C21.0535022,8.90482184 24.1815951,10.6647563 24.6133702,14.1198701 C25.0991173,18.0194854 23.1087612,22.2426254 19.5452496,21.9394307 L19.5452496,21.9394307 Z" fill="#FFFFFF"></path></g></g></g></g></svg>