<svg xmlns:xlink="http://www.w3.org/1999/xlink" xmlns="http://www.w3.org/2000/svg" viewBox="0 0 100 100" width="100"  height="100" ><defs><style>.cls-1{fill:#ea0029;}</style></defs><g id="Bow"><path d="M10.82,36.42a44.51,44.51,0,0,0-.47,9.81h0c.4,4.61.16,9.36,2.14,13.7,1.27,3.2,4.55,6.12,8.09,6.19,5.79-.1,11.28-2.4,16-4.9.54-.28,1.17-.87,1.9-.65a15.91,15.91,0,0,0,14.69,4.58,1.91,1.91,0,0,1,.68.31C57.13,70.64,61.13,77,68,78c7.86.52,12.41-6.78,15.44-13.09A19,19,0,0,0,84.7,62.1l.11-.34a41.69,41.69,0,0,0,2.69-8.87c.55-4.38,1.31-9.69-1.94-13.41a11.3,11.3,0,0,0-1-.89h0a11.67,11.67,0,0,0-6.78-2.46A48.41,48.41,0,0,0,63.3,39c-.72.15-1.38.57-2.08.14a13,13,0,0,0-10.89-4.4c-1.13-.06-2.33.34-3.38,0-.75-.75-.86-1.91-1.42-2.78l-.05-.12a.7.7,0,0,0-.06-.09,37.38,37.38,0,0,0-4.85-6.65L40.43,25c-4.81-5.24-11.68-8.83-18.78-7.76a10.47,10.47,0,0,0-8.08,7.28c-1.56,3.86-2.05,7.89-2.76,11.86Z"/><path class="cls-1" d="M34.65,51.37a6.26,6.26,0,0,1-5.75-3.23,7,7,0,0,1,.85-7.72c2.37-2,6.23-2,8.9-.68,1.32-.2,1.91-1.62,3-2.3.47-.25,1.15-.61,1.16-1.29a26.49,26.49,0,0,0-8.1-11.1,16.74,16.74,0,0,0-10.25-3.92,7.28,7.28,0,0,0-7.13,4.45,45.63,45.63,0,0,0-2.39,9C14.57,41,13.8,47.29,14.68,54c.59,3.12,1.42,6.33,4.61,7.47C25.19,62.88,31,59.6,35.7,56.65c.61-.59.32-1.35.15-2.14C35.38,53.4,35.89,51.93,34.65,51.37Z"/><path class="cls-1" d="M32.43,42.34a2.8,2.8,0,0,0-1.16,1.3c-.39,1.68.12,3.76,1.91,4.41.73.16,1.4.48,2.06.17.87-1.31.95-2.74,1.56-4.1.11-.54.54-1,.26-1.56A4.73,4.73,0,0,0,32.43,42.34Z"/><path class="cls-1" d="M83.16,42.64c-1.69-2.57-4.88-2.28-7.46-2.41-4,.4-8.44.74-11.72,3-.49.86.29,1.75.4,2.62s.11,1.94.88,2.38c2.43.47,5.11,1.63,6.23,4a6.26,6.26,0,0,1-.78,6.34,4.33,4.33,0,0,1-3.86,2c-1.53,0-2.85-1-4.18-1.59a1.14,1.14,0,0,0-.71.23c-1.38,1.71-3,3.12-4.45,4.64a1.06,1.06,0,0,0,.2.93c2,2.83,3.94,5.73,6.82,7.9,2.67,1.24,5.74,1.79,8.5.31,5-3.27,7-9.88,9.36-15.12C83.54,53,86.11,47.75,83.16,42.64Z"/><path class="cls-1" d="M59.76,56.22a13.7,13.7,0,0,0,1.3-8c-.77-4-2.67-7.65-6.72-9-3.25-1.48-8-.55-10.64,1.83-3.13,2.24-4.09,6.22-4.41,9.68A10.91,10.91,0,0,0,43.6,60,10.77,10.77,0,0,0,48,61.82C52.63,62.41,57.58,60.45,59.76,56.22Z"/><path class="cls-1" d="M65.76,56.75a2.72,2.72,0,0,0,2.8-.67,2.34,2.34,0,0,0,.15-2.44,3.87,3.87,0,0,0-3.47-1.82,12.41,12.41,0,0,0-1.08,3.39C64.12,56.13,65.08,56.45,65.76,56.75Z"/></g></svg>