<svg width="35" height="35" viewBox="0 0 35 35" version="1.1" xmlns="http://www.w3.org/2000/svg" xmlns:xlink="http://www.w3.org/1999/xlink"><g id=" " stroke="none" stroke-width="1" fill="none" fill-rule="evenodd"><g transform="translate(-1085.000000, -770.000000)" fill="none"><g id=" 0" transform="translate(0.000000, 716.000000)" fill="none"><g id="Group-13" transform="translate(1085.000000, 54.000000)" fill="none"><circle id="Oval-Copy-2" fill="#2D2A26" cx="17.25" cy="17.25" r="17.25"></circle><g id="icon/long-arrow-copy-4" transform="translate(7.500000, 9.750000)" fill="#FFFFFF"><g id="icon/twitter" fill="#FFFFFF"><g id="Group-5-Copy" fill="#FFFFFF"><g fill="#FFFFFF"><g id="twitter" transform="translate(0.450574, 0.250638)" fill="#FFFFFF"><path d="M0.00106339792,13.326211 C1.69858229,14.386439 3.7122102,15 5.87074007,15 C11.9348506,15 16.8506034,10.1584794 16.8506034,4.1871732 C16.8506034,4.03808208 16.8474132,3.89009329 16.8415925,3.74254544 C17.0609323,3.57256503 18.4174923,2.50180967 18.75,1.81345513 C18.75,1.81345513 17.6483757,2.26431109 16.5702022,2.3705213 C16.5680754,2.3705213 16.5654449,2.37101735 16.5633181,2.37101735 C16.5633181,2.37101735 16.5654449,2.36997013 16.5691388,2.36737963 C16.6684825,2.30201103 18.0573921,1.37092181 18.2454457,0.26152953 C18.2454457,0.26152953 17.4662548,0.671102962 16.3752645,1.02941771 C16.1946548,1.08850299 16.0055938,1.14659617 15.8106562,1.20044534 C15.1074144,0.461328169 14.1078203,0 12.9982486,0 C10.8699416,0 9.14533403,1.69787506 9.14533403,3.79220574 C9.14533403,4.08774238 9.17986648,4.3753973 9.2451815,4.65158792 C8.94776589,4.63957244 4.41864222,4.38950722 1.33747474,0.714975987 C1.33747474,0.714975987 -0.503994645,3.19066026 2.43484542,5.73639808 C2.43484542,5.73639808 1.54147924,5.70134375 0.770739618,5.24784217 C0.770739618,5.24784217 0.487651898,8.24708156 3.81580754,9.01392252 C3.81580754,9.01392252 3.16092233,9.25820047 2.11616186,9.08403117 C2.11616186,9.08403117 2.70041506,11.5074095 5.65733289,11.7338847 C5.65733289,11.7338847 3.31914474,13.8139953 0,13.3259354 L0.00106339792,13.326211 Z" fill="#FFFFFF"></path></g></g></g></g></g></g></g></g></g></svg>