<svg width="24" height="24" viewBox="0 0 19 24" version="1.1" xmlns="http://www.w3.org/2000/svg" xmlns:xlink="http://www.w3.org/1999/xlink"><g id=" " stroke="none" stroke-width="1" fill="none" fill-rule="evenodd"><g id=" " transform="translate(-1367.000000, -787.000000)" fill="#2D2A26"><g transform="translate(0.000000, 764.000000)" fill="#2D2A26"><g transform="translate(1367.000000, 23.000000)" fill="#2D2A26"><g fill="#2D2A26"><path d="M17.5909243,7.35245902 L0.409075655,7.35245902 C0.183276249,7.35245902 0,7.52138032 0,7.72949419 L0,22.4344402 C0,22.6429518 0.183276249,22.8114754 0.409075655,22.8114754 L17.5909243,22.8114754 C17.8171552,22.8114754 18,22.6429518 18,22.4344402 L18,7.72949419 C18,7.52138032 17.8171552,7.35245902 17.5909243,7.35245902 Z M17.1818487,22.0574051 L0.818151311,22.0574051 L0.818151311,8.10657354 L17.1818487,8.10657354 L17.1818487,22.0574051 L17.1818487,22.0574051 Z" id=" " fill-rule="nonzero" fill="#2D2A26"></path><path d="M5.72730012,2.45081967 L5.72730012,7.35244429 L4.50002055,7.35244429 L4.50002055,2.45081967 L3.68181818,2.45081967 L3.68181818,7.72952293 C3.68181818,7.9376364 3.86509513,8.10655738 4.09089539,8.10655738 L6.13637733,8.10655738 C6.3621776,8.10655738 6.54545455,7.9376364 6.54545455,7.72952293 L6.54545455,2.45081967 L5.72730012,2.45081967 Z" fill="#2D2A26"></path><path d="M14.1982422,2.18425998 L12.1528003,0.298988834 C12.0762886,0.228114975 11.9724033,0.18852459 11.8635803,0.18852459 L6.13641971,0.18852459 C6.02802811,0.18852459 5.92371139,0.228114975 5.84719968,0.298988834 L3.80175779,2.18425998 C3.68473705,2.29211727 3.64959728,2.4542346 3.71297352,2.59523116 C3.7763977,2.73587423 3.92568183,2.82786885 4.09097781,2.82786885 L13.9090222,2.82786885 C14.0742702,2.82786885 14.2240338,2.73587423 14.2870265,2.59523116 C14.3504027,2.4542346 14.3152629,2.29207309 14.1982422,2.18425998 Z M5.07848707,2.07379574 L6.30574262,0.942641888 L11.6942094,0.942641888 L12.921465,2.07379574 L5.07848707,2.07379574 Z" id=" " fill-rule="nonzero" fill="#2D2A26"></path><path d="M13.5000274,2.45081967 L13.5000274,7.35244429 L12.2727478,7.35244429 L12.2727478,2.45081967 L11.4545455,2.45081967 L11.4545455,7.72952293 C11.4545455,7.9376364 11.6373909,8.10655738 11.8636227,8.10655738 L13.9091046,8.10655738 C14.1353363,8.10655738 14.3181818,7.9376364 14.3181818,7.72952293 L14.3181818,2.45081967 L13.5000274,2.45081967 Z" fill="#2D2A26"></path></g></g></g></g></g></svg>