<svg width="36" height="36" viewBox="0 0 36 36" version="1.1" xmlns="http://www.w3.org/2000/svg" xmlns:xlink="http://www.w3.org/1999/xlink"><g id=" " stroke="none" stroke-width="1" fill="none" fill-rule="evenodd"><g transform="translate(-378.000000, -1996.000000)" fill="none"><g transform="translate(178.000000, 1242.000000)" fill="none"><g id="Group-15" transform="translate(200.000000, 754.000000)" fill="none"><circle id="Oval" fill="#2D2A26" cx="17.7428571" cy="17.7428571" r="17.7428571"></circle><path d="M26.9538107,13.9462425 C26.9538107,13.9462425 26.7642707,12.516795 26.1816782,11.887425 C25.4423507,11.06244 24.6143282,11.05758 24.2346407,11.0108025 C21.5148632,10.8 17.4355007,10.8 17.4355007,10.8 L17.4263882,10.8 C17.4263882,10.8 13.3470257,10.8 10.6278557,11.0108025 C10.2481682,11.05758 9.42075321,11.06244 8.68081821,11.887425 C8.09883321,12.516795 7.90868571,13.9462425 7.90868571,13.9462425 C7.90868571,13.9462425 7.71428571,15.62355 7.71428571,17.3008575 L7.71428571,18.8730675 C7.71428571,20.55159 7.90868571,22.22829 7.90868571,22.22829 C7.90868571,22.22829 8.09822571,23.65713 8.68081821,24.285285 C9.42075321,25.11027 10.3909307,25.0853625 10.8234707,25.1716275 C12.3780632,25.3307925 17.4312482,25.38 17.4312482,25.38 C17.4312482,25.38 21.5148632,25.37271 24.2346407,25.1643375 C24.6143282,25.1157375 25.4423507,25.1108775 26.1816782,24.2858925 C26.7636632,23.6577375 26.9538107,22.2288975 26.9538107,22.2288975 C26.9538107,22.2288975 27.1482107,20.55159 27.1482107,18.873675 L27.1482107,17.301465 C27.1482107,15.62355 26.9538107,13.9462425 26.9538107,13.9462425 Z" fill="#FFFFFF" fill-rule="nonzero"></path><g id="iconfinder_youtube_317714" transform="translate(14.657143, 13.885714)" fill="#2D2A26" fill-rule="nonzero"><polygon points="0.347142857 0.559285714 0.347142857 7.84928571 6.42214286 4.20428571" fill="#2D2A26"></polygon></g></g></g></g></g></svg>